<svg xmlns="http://www.w3.org/2000/svg" viewBox="0 0 500 500"><g id="freepik--background-complete--inject-91"><rect x="416.78" y="398.49" width="33.12" height="0.25" style="fill:#ebebeb"></rect><rect x="322.53" y="401.21" width="8.69" height="0.25" style="fill:#ebebeb"></rect><rect x="396.59" y="389.21" width="19.19" height="0.25" style="fill:#ebebeb"></rect><rect x="52.46" y="390.89" width="43.19" height="0.25" style="fill:#ebebeb"></rect><rect x="104.56" y="390.89" width="6.33" height="0.25" style="fill:#ebebeb"></rect><rect x="131.47" y="395.11" width="93.68" height="0.25" style="fill:#ebebeb"></rect><path d="M237,337.8H43.92a5.71,5.71,0,0,1-5.71-5.71V60.66A5.71,5.71,0,0,1,43.92,55H237a5.71,5.71,0,0,1,5.71,5.71V332.09A5.71,5.71,0,0,1,237,337.8ZM43.92,55.2a5.47,5.47,0,0,0-5.46,5.46V332.09a5.47,5.47,0,0,0,5.46,5.46H237a5.47,5.47,0,0,0,5.46-5.46V60.66A5.47,5.47,0,0,0,237,55.2Z" style="fill:#ebebeb"></path><path d="M453.31,337.8H260.21a5.72,5.72,0,0,1-5.71-5.71V60.66A5.72,5.72,0,0,1,260.21,55h193.1A5.71,5.71,0,0,1,459,60.66V332.09A5.71,5.71,0,0,1,453.31,337.8ZM260.21,55.2a5.47,5.47,0,0,0-5.46,5.46V332.09a5.47,5.47,0,0,0,5.46,5.46h193.1a5.47,5.47,0,0,0,5.46-5.46V60.66a5.47,5.47,0,0,0-5.46-5.46Z" style="fill:#ebebeb"></path><rect y="382.4" width="500" height="0.25" style="fill:#ebebeb"></rect><rect x="110.34" y="105.11" width="279.32" height="158" style="fill:#e0e0e0"></rect><rect x="107.25" y="260.36" width="285.5" height="6.6" rx="1.64" style="fill:#ebebeb"></rect><rect x="116.75" y="105.11" width="266.49" height="151.95" style="fill:#fafafa"></rect><path d="M264.67,290.13,251.5,275.64V267a1.5,1.5,0,1,0-3,0v8.67l-13.17,14.49c-1.37,1.51.75,3.84,2.12,2.34q5.52-6.09,11.05-12.16v10.87a1.5,1.5,0,1,0,3,0V280.31q5.52,6.07,11.05,12.16C263.92,294,266,291.64,264.67,290.13Z" style="fill:#e6e6e6"></path><rect x="99.87" y="97.86" width="300.27" height="14.5" rx="4.14" style="fill:#f0f0f0"></rect><rect x="68.8" y="293.46" width="118.06" height="40.75" style="fill:#ebebeb"></rect><rect x="68.8" y="334.21" width="118.06" height="40.75" style="fill:#ebebeb"></rect><polygon points="113.66 334.21 128.34 293.46 105.74 293.46 91.05 334.21 113.66 334.21" style="fill:#f0f0f0"></polygon><polygon points="139.29 293.46 134.32 293.46 119.63 334.21 124.6 334.21 139.29 293.46" style="fill:#f0f0f0"></polygon><polygon points="98.97 374.96 113.66 334.21 91.05 334.21 76.36 374.96 98.97 374.96" style="fill:#f0f0f0"></polygon><polygon points="124.6 334.21 119.63 334.21 104.94 374.96 109.91 374.96 124.6 334.21" style="fill:#f0f0f0"></polygon><rect x="125.76" y="238.64" width="4.12" height="118.06" transform="translate(425.49 169.84) rotate(90)" style="fill:#e0e0e0"></rect><rect x="125.76" y="279.07" width="4.12" height="118.06" transform="translate(465.92 210.27) rotate(90)" style="fill:#e0e0e0"></rect><path d="M130.84,319.05a1.77,1.77,0,1,0,0-3.54h-6a1.77,1.77,0,1,0,0,3.54Z" style="fill:#e0e0e0"></path><path d="M130.84,318.42a1.77,1.77,0,1,0,0-3.54h-6a1.77,1.77,0,1,0,0,3.54Z" style="fill:#f5f5f5"></path><path d="M130.84,356.67a1.78,1.78,0,0,0,0-3.55h-6a1.78,1.78,0,0,0,0,3.55Z" style="fill:#e0e0e0"></path><path d="M130.84,356a1.77,1.77,0,1,0,0-3.54h-6a1.77,1.77,0,1,0,0,3.54Z" style="fill:#f5f5f5"></path><path d="M66.73,291.63v85.11H188.91V291.63Zm118.06,81H70.86V336.36H184.79Zm0-40.38H70.86V296H184.79Z" style="fill:#f5f5f5"></path><rect x="190.97" y="293.46" width="118.06" height="40.75" style="fill:#ebebeb"></rect><rect x="190.97" y="334.21" width="118.06" height="40.75" style="fill:#ebebeb"></rect><polygon points="282.5 334.21 297.19 293.46 274.59 293.46 259.9 334.21 282.5 334.21" style="fill:#f0f0f0"></polygon><polygon points="308.13 293.46 303.17 293.46 288.48 334.21 293.44 334.21 308.13 293.46" style="fill:#f0f0f0"></polygon><polygon points="267.82 374.96 282.5 334.21 259.9 334.21 245.21 374.96 267.82 374.96" style="fill:#f0f0f0"></polygon><polygon points="293.44 334.21 288.48 334.21 273.79 374.96 278.76 374.96 293.44 334.21" style="fill:#f0f0f0"></polygon><rect x="247.94" y="238.63" width="4.12" height="118.06" transform="translate(547.66 47.66) rotate(90)" style="fill:#e0e0e0"></rect><rect x="247.94" y="279.07" width="4.12" height="118.06" transform="translate(588.1 88.09) rotate(90)" style="fill:#e0e0e0"></rect><path d="M253,319.05a1.77,1.77,0,0,0,0-3.54h-6a1.77,1.77,0,1,0,0,3.54Z" style="fill:#e0e0e0"></path><path d="M253,318.42a1.77,1.77,0,0,0,0-3.54h-6a1.77,1.77,0,1,0,0,3.54Z" style="fill:#f5f5f5"></path><path d="M253,356.67a1.78,1.78,0,0,0,0-3.55h-6a1.78,1.78,0,0,0,0,3.55Z" style="fill:#e0e0e0"></path><path d="M253,356a1.77,1.77,0,0,0,0-3.54h-6a1.77,1.77,0,1,0,0,3.54Z" style="fill:#f5f5f5"></path><path d="M188.91,291.63v85.11H311.09V291.63Zm118.06,81H193V336.36H307Zm0-40.38H193V296H307Z" style="fill:#f5f5f5"></path><rect x="313.15" y="293.46" width="118.06" height="40.75" style="fill:#ebebeb"></rect><rect x="313.15" y="334.21" width="118.06" height="40.75" style="fill:#ebebeb"></rect><polygon points="387.91 334.21 402.6 293.46 379.99 293.46 365.3 334.21 387.91 334.21" style="fill:#f0f0f0"></polygon><polygon points="413.54 293.46 408.57 293.46 393.88 334.21 398.85 334.21 413.54 293.46" style="fill:#f0f0f0"></polygon><polygon points="373.22 374.96 387.91 334.21 365.3 334.21 350.61 374.96 373.22 374.96" style="fill:#f0f0f0"></polygon><polygon points="398.85 334.21 393.88 334.21 379.19 374.96 384.16 374.96 398.85 334.21" style="fill:#f0f0f0"></polygon><rect x="370.12" y="238.63" width="4.12" height="118.06" transform="translate(669.84 -74.51) rotate(90)" style="fill:#e0e0e0"></rect><rect x="370.12" y="279.07" width="4.12" height="118.06" transform="translate(710.27 -34.08) rotate(90)" style="fill:#e0e0e0"></rect><path d="M375.2,319.05a1.77,1.77,0,1,0,0-3.54h-6a1.77,1.77,0,1,0,0,3.54Z" style="fill:#e0e0e0"></path><path d="M375.2,318.42a1.77,1.77,0,1,0,0-3.54h-6a1.77,1.77,0,1,0,0,3.54Z" style="fill:#f5f5f5"></path><path d="M375.2,356.67a1.78,1.78,0,0,0,0-3.55h-6a1.78,1.78,0,0,0,0,3.55Z" style="fill:#e0e0e0"></path><path d="M375.2,356a1.77,1.77,0,1,0,0-3.54h-6a1.77,1.77,0,1,0,0,3.54Z" style="fill:#f5f5f5"></path><path d="M311.09,291.63v85.11H433.27V291.63Zm118.05,81H315.21V336.36H429.14Zm0-40.38H315.21V296H429.14Z" style="fill:#f5f5f5"></path><polygon points="421.45 382.87 78.55 382.87 76.76 376.74 423.24 376.74 421.45 382.87" style="fill:#e0e0e0"></polygon></g><g id="freepik--character-1--inject-91"><path d="M107.24,293.81l1,13.73s-7.2,23.06-8,48.28c-.81,24.4-1,43.23-1,43.23l8.9.57,13.7-87.5,2.78-19.05Z" style="fill:#ffc3bd"></path><path d="M129.72,135.46s5.92-2.26,8.91,3.32c0,0-7-1.62-9.2,1.71Z" style="fill:#263238"></path><path d="M129.72,135.46s5.92-2.26,8.91,3.32c0,0-7-1.62-9.2,1.71Z" style="fill:#fff;opacity:0.1"></path><path d="M195.54,180.89l-3.86,3.94c-3.42.62-4,5.53-4,5.53-.78.47-6.55,5.25-8.28,6.42l3.31,3.79a71.87,71.87,0,0,1,7.18-6.5s8.71-3.94,10.26-5.54,0-7.14,0-7.14Z" style="fill:#ffc3bd"></path><path d="M184.18,191.6c-5.8,3.5-14.38,8.89-14.38,8.89a190.38,190.38,0,0,0-12.37-14.75,38.6,38.6,0,0,0-9.38-7.73v16.5c4,4.09,16.55,16.48,21.88,16.48,4.39,0,13.28-8.66,18.4-14.05Z" style="fill:#263238"></path><path d="M157,203c-2.47-5.11-5.73-15.61-5.73-15.61L149,191.49l.86,4.82C151.71,198.16,154.25,200.61,157,203Z" style="opacity:0.4"></path><path d="M136.93,296.86l2.5,11.5s-2.75,27.5,1.75,51.5,5.25,38.75,5.25,38.75l10-1-3-86.75.25-19.25Z" style="fill:#ffc3bd"></path><path d="M107.71,184.83a342.19,342.19,0,0,0,6.47,44.78s-15.25,28.25-13.5,69c0,0,15.5,6,56.75,0l-5.25-69.25s1.75-44.75-3-49.75c-4.21-4.43-22.55-10.23-36.59-3.32A8.83,8.83,0,0,0,107.71,184.83Z" style="fill:#B8945A"></path><path d="M127.18,228.11s12.25,2.13,20.87,0v5.25s-6.41.93-20.87,0Z" style="fill:#B8945A"></path><path d="M127.18,228.11s12.25,2.13,20.87,0v5.25s-6.41.93-20.87,0Z" style="opacity:0.5"></path><path d="M135.43,229.43a2.47,2.47,0,0,1,2.17-2.37c1.5-.28,5.64-.2,5.7,3s.69,5.5-2.43,5.69-5.56.42-5.47-2l5.65,0L141,229Z" style="fill:#fff"></path><path d="M120,157.07c1.62,4.63,3.74,12.75,2,17.44a2.56,2.56,0,0,0,1,3.05c3.53,2.55,9.27,4.61,13.59,4.15,5.55-.6,4.1-4.53,2.69-6.68-.38-.58-1-1.39-1.65-1.51-5.45-.92-6.48-5-6.06-9.15Z" style="fill:#ffc3bd"></path><path d="M124.75,160.07l6.86,4.28a17.26,17.26,0,0,0,0,3.05,8.43,8.43,0,0,1-6.86-3.9C124,162,124.19,160.34,124.75,160.07Z" style="opacity:0.2;isolation:isolate"></path><path d="M117.89,149.58c2,7.12,2.81,11.39,7.25,14.3,6.69,4.4,14.89-.85,15-8.41.14-6.85-3.15-17.32-10.84-18.67a10.09,10.09,0,0,0-11.46,12.78Z" style="fill:#ffc3bd"></path><path d="M133.86,148.55a21.28,21.28,0,0,0,3.9,4.41,3.5,3.5,0,0,1-2.7,1.14Z" style="fill:#ed847e"></path><path d="M126.76,147a.28.28,0,0,1-.18,0,.36.36,0,0,1-.18-.47,3.54,3.54,0,0,1,2.51-2,.36.36,0,0,1,.4.3.35.35,0,0,1-.3.4h0a2.81,2.81,0,0,0-2,1.63A.34.34,0,0,1,126.76,147Z" style="fill:#263238"></path><path d="M138,143.6a.32.32,0,0,1-.34,0,2.8,2.8,0,0,0-2.52-.19.36.36,0,0,1-.48-.16.34.34,0,0,1,.16-.47A3.5,3.5,0,0,1,138,143a.33.33,0,0,1,.13.46h0A.35.35,0,0,1,138,143.6Z" style="fill:#263238"></path><path d="M122.3,172.2l14.13,9.16V173.1l2.36.54a1.34,1.34,0,0,1,1,1A54.88,54.88,0,0,1,141.11,186s-1.18-5.13-4.43-3.13c0,0-3.47-2.87-6.22,2,0,0-6.66-2.87-8.16-6.37s-2.5-5.39-2.5-5.39Z" style="fill:#fff"></path><path d="M121.26,172.2a319.65,319.65,0,0,1,7.23,46.33c1.61,23.17,1.94,30.17-7.23,29.17s-16.66-2.17-15.33-5.5,6.33-10.84,6-14.67-3.5-33.66-3.86-38.18S104.93,175,121.26,172.2Z" style="fill:#263238"></path><path d="M128.49,218.53c-.14-2.05-.32-4.1-.52-6.13l-17.06,5c.27,2.57.51,4.88.69,6.66L123,221l-.13-.86,5.69-.85C128.52,219,128.51,218.78,128.49,218.53Z" style="opacity:0.30000000000000004"></path><path d="M137.6,173.1s7.33,14.35,7.83,37.89-.54,36.07,3.83,36.8,5.34-2.26,5.34-2.26-1.3-12.79-1.3-15.92,1.38-22,0-35.5,0-12.66-2.27-14.17A62.19,62.19,0,0,0,137.6,173.1Z" style="fill:#263238"></path><path d="M110.64,214.78,115.15,189s-3.72,3.78-6.48,6.67C109.2,200.9,110,208.35,110.64,214.78Z" style="opacity:0.4"></path><path d="M133.54,204.33c-1.59.34-10.06,5.75-10.06,5.75s-4.6,1.39-6.72,1.78L119,217c1.84-.82,5.83-2,5.83-2s3.39-.11,4.52-.34c0,0,3.27.9,5.19-.34s3-4.29,3-4.29S135.12,204,133.54,204.33Z" style="fill:#ffc3bd"></path><path d="M118.8,210.79c-4.52.84-10.12.94-10.12.2,0-1.13,4.29-15.3,6.62-20.5,1.49-3.33,6.13-11.63,1-14.54-2.72-1.55-11.23-.47-15.23,17.16s-2.16,24,1.71,26.75c4.07,2.89,13.26-.53,18.25-2.75Z" style="fill:#263238"></path><path d="M129.34,148.73c.12.6.53,1,.92.94s.61-.62.49-1.22-.53-1-.91-.93S129.23,148.13,129.34,148.73Z" style="fill:#263238"></path><path d="M136.07,147.41c.12.59.53,1,.91.94s.61-.62.5-1.22-.53-1-.91-.94S136,146.81,136.07,147.41Z" style="fill:#263238"></path><path d="M136.4,146.26l1.35-.69S137.23,146.83,136.4,146.26Z" style="fill:#263238"></path><path d="M129.67,147.58l1.35-.69S130.5,148.15,129.67,147.58Z" style="fill:#263238"></path><path d="M133.44,157.47a7.66,7.66,0,0,0,1.26-.11.23.23,0,0,0,.18-.26h0a.23.23,0,0,0-.25-.18,6,6,0,0,1-5.19-1.45.23.23,0,0,0-.32,0,.22.22,0,0,0,0,.32A6.25,6.25,0,0,0,133.44,157.47Z" style="fill:#263238"></path><path d="M120.42,156s1.71-.83,1.67-4.63a11,11,0,0,0,.26-10.93s8.25-.64,10-3.79,6.12-3.28,6.12-3.28-1-3.75-8.42-2.16a11,11,0,0,1,5.76-1.84s-4.49-4.16-11.18-.46a4.74,4.74,0,0,1,3.21-2.62S119,124.2,112,132.68c-5.5,6.66-1,9.27-1,9.27s-4.48-.69-3.54,5.36l1.81-2.85s-1.44,3.84,2.81,8.09S120.42,156,120.42,156Z" style="fill:#263238"></path><path d="M115.82,157.07a7,7,0,0,0,4.93,2.11c2.47,0,3-2.36,1.82-4.34-1.11-1.79-3.73-3.94-5.94-3S114.23,155.42,115.82,157.07Z" style="fill:#ffc3bd"></path><path d="M109,397.23l-10.6.21a.85.85,0,0,0-.82.68l-1.74,8.67a1.42,1.42,0,0,0,1.09,1.68l.3,0c3.82-.14,7.22-.42,12-.51,5.61-.1,4.2.6,10.8.56,4,0,4.62-4.56,2.93-4.75-7.74-.82-8.59-3.13-11.62-5.84A3.39,3.39,0,0,0,109,397.23Z" style="fill:#263238"></path><path d="M156.62,397.23l-10.6.21a.85.85,0,0,0-.82.68l-1.75,8.67a1.42,1.42,0,0,0,1.1,1.68l.3,0c3.82-.14,7.22-.42,12-.51,5.62-.1,4.21.6,10.81.56,4,0,4.62-4.56,2.93-4.75-7.74-.82-8.59-3.13-11.62-5.84A3.41,3.41,0,0,0,156.62,397.23Z" style="fill:#263238"></path></g></svg>