<svg xmlns="http://www.w3.org/2000/svg" viewBox="0 0 500 500"><g id="freepik--background-complete--inject-94"><path d="M73.15,237.57a2.07,2.07,0,0,1,0-.23c0-.18,0-.39,0-.66,0-.61,0-1.45,0-2.54,0-2.22,0-5.41-.09-9.44l.15.15L24.5,225l.25-.25h0v6.52c0,2.15,0,4.26,0,6.33l-.24-.24,34.67.11,10.24.07,2.76,0h.73l.25,0s-.07,0-.22,0h-.7l-2.71,0-10.18.07-34.84.11h-.24v-.24q0-3.1,0-6.33v-6.52h0l.25-.25,48.65.1h.16v.15c0,4.07-.06,7.29-.08,9.53,0,1.07,0,1.9,0,2.5,0,.26,0,.47,0,.64S73.16,237.58,73.15,237.57Z" style="fill:#e0e0e0"></path><path d="M79.75,224.7a1.41,1.41,0,0,1,0-.25c0-.18,0-.4,0-.68,0-.63,0-1.49,0-2.58,0-2.26-.06-5.44-.1-9.36l.18.18-29.23.07c-.22.22.3-.31.25-.25h0v3.33c0,1.11,0,2.2,0,3.28,0,2.15,0,4.24,0,6.24l-.23-.24,20.91.12,6.09.06,1.64,0,.59,0a3.28,3.28,0,0,1-.53,0l-1.59,0-6,.06-21.07.12h-.24v-.24c0-2,0-4.09,0-6.24v-6.61h0l.25-.25,29.23.07h.18v.18c0,4-.07,7.19-.1,9.47,0,1.07,0,1.92,0,2.54S79.76,224.71,79.75,224.7Z" style="fill:#e0e0e0"></path><rect x="51.01" y="393.24" width="48.65" height="12.87" style="fill:#ebebeb"></rect><path d="M79.09,419.67a1.35,1.35,0,0,1,0-.24v-.66c0-.6,0-1.45,0-2.53,0-2.22,0-5.41-.08-9.44l.15.15-48.65.1c.11-.11-.25.24.24-.25h0v12.85l-.24-.24,34.67.11,10.23.07,2.77,0h.72l.26,0h-.23l-.69,0-2.71,0-10.18.07-34.84.11h-.25V406.82h0l.25-.25,48.65.1h.15v.15c0,4.06-.06,7.29-.08,9.53,0,1.07,0,1.9,0,2.5,0,.26,0,.47,0,.63A1.66,1.66,0,0,1,79.09,419.67Z" style="fill:#e0e0e0"></path><rect x="429.98" y="358.04" width="48.65" height="12.87" style="fill:#ebebeb"></rect><path d="M458.06,384.46a2.07,2.07,0,0,1,0-.23l0-.66c0-.61,0-1.45,0-2.53,0-2.23-.05-5.42-.09-9.45l.15.15-48.65.1.25-.25h0v6.53c0,2.15,0,4.26,0,6.33l-.24-.24,34.67.11,10.24.07,2.76,0,.73,0h.25s-.07,0-.22,0h-.7l-2.71,0-10.18.07-34.84.11h-.24v-.25c0-2.07,0-4.18,0-6.33V371.6h0c.5-.49.14-.13.25-.25l48.65.1h.15v.15c0,4.07-.06,7.29-.08,9.54,0,1.06,0,1.9,0,2.5,0,.26,0,.46,0,.63S458.07,384.47,458.06,384.46Z" style="fill:#e0e0e0"></path><path d="M457.79,61.13a1.17,1.17,0,0,1,0-.23v-.66c0-.61,0-1.45,0-2.54,0-2.22-.05-5.41-.08-9.44l.15.15-48.65.1c.11-.11-.25.24.24-.25h0V61.13l-.24-.24,34.67.11,10.23.07,2.77,0h.72l.26,0-.23,0h-.69l-2.72,0L444,61.26l-34.84.11h-.25V48.28h0l.25-.25,48.65.1h.15v.15c0,4.06-.06,7.29-.08,9.53,0,1.07,0,1.9,0,2.5,0,.26,0,.47,0,.64A1.39,1.39,0,0,1,457.79,61.13Z" style="fill:#e0e0e0"></path><path d="M437.43,74a1,1,0,0,1,0-.23c0-.17,0-.39,0-.66,0-.61,0-1.45,0-2.54,0-2.22-.05-5.41-.08-9.44l.15.15-48.65.1c.11-.11-.25.25.24-.25h0V74l-.24-.24,34.67.11,10.23.07,2.77,0,.72,0h.26l-.23,0h-.69l-2.72,0-10.17.06-34.84.11h-.25V61.19h0l.25-.25,48.65.1h.15v.15c0,4.07-.06,7.29-.08,9.53,0,1.07,0,1.91,0,2.5,0,.26,0,.47,0,.64A1.23,1.23,0,0,1,437.43,74Z" style="fill:#e0e0e0"></path><path d="M265.57,335.55s0-.08,0-.23l0-.66c0-.61,0-1.45,0-2.54,0-2.22,0-5.41-.08-9.44l.15.15-48.65.1.25-.25h0V326c0,1.09,0,2.17,0,3.25v6.33l-.24-.24,34.67.11,10.23.07,2.77,0h.72l.26,0-.22,0h-.7l-2.71,0-10.18.07-34.84.11h-.24v-.24q0-3.1,0-6.33V322.7h0l.25-.25,48.65.1h.15v.15c0,4.06-.06,7.29-.08,9.53,0,1.07,0,1.9,0,2.5v.64C265.58,335.49,265.58,335.55,265.57,335.55Z" style="fill:#e0e0e0"></path><path d="M272.17,322.68a1.41,1.41,0,0,1,0-.25c0-.18,0-.41,0-.68,0-.63,0-1.49,0-2.58,0-2.26-.06-5.44-.1-9.36l.18.18-29.23.07c-.23.22.3-.31.24-.25h0v6.61c0,2.15,0,4.24,0,6.24l-.23-.24,20.91.11,6.09.07,1.64,0,.59,0a3.28,3.28,0,0,1-.53,0l-1.6,0-6,.06-21.07.11h-.24v-.24c0-2,0-4.09,0-6.24v-6.61h0l.25-.25,29.23.07h.18v.18c0,4-.08,7.19-.1,9.47,0,1.07,0,1.92,0,2.54S272.18,322.69,272.17,322.68Z" style="fill:#e0e0e0"></path><polygon points="191.45 434.65 191.45 467.86 240.02 467.86 293.58 467.86 293.58 434.65 191.45 434.65" style="fill:#f5f5f5"></polygon><polygon points="187.16 425.37 187.16 434.65 297.15 434.65 297.15 425.37 240.02 425.37 187.16 425.37" style="fill:#e0e0e0"></polygon><polygon points="242.16 467.86 293.58 467.86 293.58 434.65 297.15 434.65 297.15 425.37 240.02 425.37 240.02 433.79 242.16 467.86" style="fill:#e0e0e0"></polygon><rect x="205.73" y="440.01" width="20.71" height="5" style="fill:#e0e0e0"></rect><rect x="203.07" y="451.26" width="26.6" height="10.56" style="fill:#fff"></rect><polygon points="207.16 392.2 207.16 425.41 255.73 425.41 309.29 425.41 309.29 392.2 207.16 392.2" style="fill:#f5f5f5"></polygon><polygon points="202.88 382.92 202.88 392.2 312.87 392.2 312.87 382.92 255.73 382.92 202.88 382.92" style="fill:#e0e0e0"></polygon><polygon points="257.87 425.41 309.29 425.41 309.29 392.2 312.87 392.2 312.87 382.92 255.73 382.92 255.73 391.34 257.87 425.41" style="fill:#e0e0e0"></polygon><rect x="221.45" y="397.56" width="20.71" height="5" style="fill:#e0e0e0"></rect><rect x="218.78" y="408.81" width="26.6" height="10.56" style="fill:#fff"></rect></g><g id="freepik--Floor--inject-94"><path d="M465.4,466.76c0,.14-96.45.26-215.39.26S34.6,466.9,34.6,466.76,131,466.5,250,466.5,465.4,466.62,465.4,466.76Z" style="fill:#263238"></path></g><g id="freepik--Character--inject-94"><polygon points="354.31 453.38 356.04 445.38 335.26 443.08 333.99 454.77 341.22 459.35 354.31 453.38" style="fill:#ffcdb0"></polygon><polygon points="425.02 431.21 422.21 465.69 406.39 463.4 405.32 429.54 425.02 431.21" style="fill:#ffcdb0"></polygon><path d="M406.34,456.59s10.62,8.57,16.53,2.27l1.18,3.35,4.65,23.6a3.08,3.08,0,0,1-2.07,3.58,3.12,3.12,0,0,1-3.21-.84c-4.29-4.61-20-21.64-19.66-23.77l.49-5.67a2.9,2.9,0,0,1,2.09-2.52Z" style="fill:#B8945A"></path><g style="opacity:0.6000000000000001"><path d="M426.07,489.51,403.9,462.8l-.08,1.24c-.22,1.34.34,1.92.93,2.83,1.75,2.69,6.71,8.8,18.58,21.67a3.15,3.15,0,0,0,2.74,1Z" style="fill:#fff"></path></g><g style="opacity:0.6000000000000001"><path d="M407.7,459.37a1.8,1.8,0,0,1,.34,2.41,1.83,1.83,0,0,1-2.45.34,1.74,1.74,0,1,1,2.24-2.63" style="fill:#fff"></path></g><path d="M420.09,476.23c.17.09,1-1.39,2.8-2.09s3.46-.22,3.51-.4-.34-.33-1-.47a4.91,4.91,0,0,0-2.73.27,4.76,4.76,0,0,0-2.15,1.66C420.1,475.77,420,476.2,420.09,476.23Z" style="fill:#263238"></path><path d="M422,480.3c.14.14,1.17-.74,2.75-1.07s2.9,0,3-.16-1.31-.87-3.11-.47S421.81,480.21,422,480.3Z" style="fill:#263238"></path><path d="M416.46,470.92c.13.15,1.71-1.21,4.13-1.93s4.51-.5,4.53-.7-2.14-.72-4.73.08S416.32,470.83,416.46,470.92Z" style="fill:#263238"></path><path d="M416.45,463.84c.07.19,1.78-.37,3.94-.3s3.85.7,3.92.53-1.57-1.12-3.9-1.17S416.36,463.7,416.45,463.84Z" style="fill:#263238"></path><path d="M421.63,463.57a2.43,2.43,0,0,0-.09-1.11,7.55,7.55,0,0,0-1.24-2.79,3.48,3.48,0,0,0-1.68-1.47,1.25,1.25,0,0,0-1.36.42,1.93,1.93,0,0,0-.32,1.37,4.35,4.35,0,0,0,4.25,3.5,5,5,0,0,0,4.65-3.09,1.66,1.66,0,0,0-.08-1.42,1.23,1.23,0,0,0-1.34-.49,4.22,4.22,0,0,0-1.86,1.21,8.46,8.46,0,0,0-1.78,2.48,2.55,2.55,0,0,0-.34,1.06,13.62,13.62,0,0,1,2.45-3.21,4,4,0,0,1,1.64-1,.67.67,0,0,1,.73.26,1.17,1.17,0,0,1,0,.94,4.5,4.5,0,0,1-4.06,2.64,3.8,3.8,0,0,1-3.66-2.93,1.36,1.36,0,0,1,.19-1,.67.67,0,0,1,.74-.24,3.16,3.16,0,0,1,1.45,1.21A11.16,11.16,0,0,1,421.63,463.57Z" style="fill:#263238"></path><path d="M429.49,230.88c0,.74,7.72,26.84,7.72,26.84s12.5,24.94,8.46,40.38c-2.23,8.51-12.28,61.75-12.28,61.75s-3.82,40.59-6,58.09-3,26.89-3,26.89l-19.15-.77-4.5-78.28-1.42-61.47L373.87,381.7s-5.43,23.91-8.39,34-9.65,31.57-9.65,31.57l-20.67-3.06s2.23-37.63,4.2-46.75,8.5-41.87,8.5-41.87l5.79-31.83,6.2-51.81,5.39-19.92,6.7-22.53Z" style="fill:#263238"></path><path d="M326.84,199.2s-.74-2.62-2.43-3.53-9.21-.61-10.8-.61-6.67-1.91-9,0a1.55,1.55,0,0,0,1.18,2c2.75.55,7.84,1.62,7.61,2s-8.93-.59-10.73,0l-12.92-.31s-2.27,2.1-.17,2.93v1.71a5.86,5.86,0,0,0,2.23,1c1.69.51-.11,1.52,2.11,2a19.62,19.62,0,0,0,4.56.41l.21,1a7.4,7.4,0,0,0,2.22.7c1.8.41,21.91,0,21.91,0l10.27,3.26,1.48-10.12Z" style="fill:#ffcdb0"></path><path d="M322.7,198.7c0,.19-2.45.42-5,1.87A9.6,9.6,0,0,0,314.9,203a15.07,15.07,0,0,1-.9,1.3,3,3,0,0,1,.6-1.5,8.19,8.19,0,0,1,2.83-2.69,11.36,11.36,0,0,1,3.67-1.31A4.2,4.2,0,0,1,322.7,198.7Z" style="fill:#eb996e"></path><path d="M307.28,205.75a19.93,19.93,0,0,1-4.51.3,10.21,10.21,0,0,0-3.08.21,3,3,0,0,0-1,.75c-.08,0,0-.65.82-1.08a7.78,7.78,0,0,1,3.23-.4A19.65,19.65,0,0,1,307.28,205.75Z" style="fill:#eb996e"></path><path d="M306.63,202.89a8.61,8.61,0,0,1-2.08.43,23.74,23.74,0,0,1-5.16.23,13.32,13.32,0,0,0-5,.23,3.1,3.1,0,0,0-1.3.67c-.24.24-.21.46-.26.46s-.14-.24.1-.59a2.9,2.9,0,0,1,1.34-.89,7.55,7.55,0,0,1,2.31-.47,25.25,25.25,0,0,1,2.85.07,32.76,32.76,0,0,0,5.08-.08A8.9,8.9,0,0,1,306.63,202.89Z" style="fill:#eb996e"></path><path d="M304.83,200.68a10.28,10.28,0,0,1-2.25.18c-1.39,0-3.31.07-5.43.07-1.06,0-2.07-.09-3-.08a13.29,13.29,0,0,0-2.39.15,3.79,3.79,0,0,0-1.5.46c-.3.2-.38.41-.42.39s0-.26.3-.55a3.4,3.4,0,0,1,1.55-.67,11.75,11.75,0,0,1,2.46-.26c.93,0,1.94.06,3,0,2.11,0,4,0,5.41.08A9.35,9.35,0,0,1,304.83,200.68Z" style="fill:#eb996e"></path><polygon points="399.61 159.12 389.76 171.19 391.99 176.17 403.6 177.03 415.5 175.07 422.13 172.69 426.39 161.75 425.07 153.12 420.43 153.31 399.61 159.12" style="fill:#ffcdb0"></polygon><path d="M390.4,170.2s-.79,3.92,6.32,4.15,25.42-4.15,25.42-4.15l14.92,26.31-15.83,34.37-49.29-1.36v-8.59s-4.29-2.94-4.75-12a37.78,37.78,0,0,1,2.26-15.37Z" style="fill:#fff"></path><path d="M396.07,156.58s-13.6,2.33-15.3,3.18-8.5,8.5-10.62,13.81-4,18.27-4,18.27-5.31,7.65-5.31,8.92v3.4s-4,6.16-4,6.8v.64l-26.21-14.87-9.91,17.84s23,16.47,34,23.17a6.39,6.39,0,0,0,8.49-1.71h0l-8.66,54,5.42.85,12.09-61.32v-8.59s-8.73-9-1.37-21.23c2.56-4.24,10-15.72,14-21.45s14.16-18.09,14.16-18.09l.05-6.62Z" style="fill:#B8945A"></path><path d="M424,151.07l6.72,1.12,3.13,3.81s18.93,4.78,21.17,7.69-11.58,40-11.58,40l-7.13,30.17s10.94,29.88,11.81,44.63l-50.74,15.11s-1.57-51,0-60.19,7.83-32.67,12.08-42.52,15-31.1,15-31.77S424,151.07,424,151.07Z" style="fill:#B8945A"></path><g style="opacity:0.30000000000000004"><path d="M437.07,237a3.68,3.68,0,0,0-1.69-1.44c-5-2.62-10.89-2.93-16.2-4.87-5.05-1.84-10-5.2-15.29-4.31-2.07.35-3.1.34-5.17.72l-.38,1.7c3.22,1.69,8.76.09,11.79,2.1a31.93,31.93,0,0,1,2.8,2.54,17.37,17.37,0,0,0,4,2.33q4.27,2,8.62,3.78c2.75,1.14,5.73,2.24,8.63,1.56a4.45,4.45,0,0,0,2.48-1.4A2.53,2.53,0,0,0,437.07,237Z"></path></g><path d="M448.19,160.49c-.76.3-9.11,16.09-11.05,24s7.37,32,7.37,32l-28.64-1.91-2.78,14.13s26.38,9.5,35.1,11.64,17.46,3.49,20,0a18.6,18.6,0,0,0,3.1-7.18l-3.88-29.67-3.68-18.81s-.39-8.34-2.33-13.19S451.1,159.32,448.19,160.49Z" style="fill:#B8945A"></path><path d="M373.73,230.84a3,3,0,0,1-.09-.66c0-.49-.08-1.12-.14-1.9-.11-1.71-.26-4.08-.44-7a7.47,7.47,0,0,0-.5-2.19,13.3,13.3,0,0,0-1.3-2.1,9.45,9.45,0,0,1-1.71-5.33,26,26,0,0,1,3.08-12.34,104.17,104.17,0,0,1,6.7-10.84c2.14-3.27,4-6.27,5.67-8.71a62.76,62.76,0,0,1,4.21-5.61c.54-.63,1-1.11,1.28-1.42a3.71,3.71,0,0,1,.48-.46,4.54,4.54,0,0,1-.4.53l-1.21,1.47c-1,1.3-2.44,3.22-4.06,5.69s-3.44,5.48-5.57,8.77a109.75,109.75,0,0,0-6.63,10.82A25.67,25.67,0,0,0,370,211.65a9.09,9.09,0,0,0,1.58,5.1,13.7,13.7,0,0,1,1.32,2.19,8,8,0,0,1,.5,2.32c.15,3,.22,5.35.27,7,0,.78,0,1.41.05,1.9A3.44,3.44,0,0,1,373.73,230.84Z" style="fill:#263238"></path><path d="M396,174.32a2.57,2.57,0,0,1-.22.59,14.48,14.48,0,0,1-.82,1.62,31.28,31.28,0,0,1-4.07,5.26,58.27,58.27,0,0,0-6.27,7.52,44.18,44.18,0,0,0-5,10.83,59.46,59.46,0,0,0-1.57,6,21.13,21.13,0,0,0-.65,5.69c.08,1.82.89,3.4,1.36,5a14.45,14.45,0,0,1,.45,4.6c-.06,2.8,0,5.06.09,6.63q.06,1.09.09,1.8a4.3,4.3,0,0,1,0,.63,2.41,2.41,0,0,1-.11-.62c-.05-.41-.12-1-.19-1.8-.13-1.56-.27-3.83-.26-6.64a14.13,14.13,0,0,0-.49-4.48,20.2,20.2,0,0,1-1.42-5.1,21,21,0,0,1,.62-5.83A60.85,60.85,0,0,1,379,200a43.21,43.21,0,0,1,5.14-10.94,55.29,55.29,0,0,1,6.4-7.51,33.43,33.43,0,0,0,4.16-5.12C395.57,175.1,395.9,174.3,396,174.32Z" style="fill:#263238"></path><path d="M404.28,173.27a2.27,2.27,0,0,1-.18.6,17.68,17.68,0,0,1-.7,1.65,38.65,38.65,0,0,1-3.41,5.63c-1.59,2.28-3.63,4.88-5.54,8a51.4,51.4,0,0,0-5.09,10.69,41.61,41.61,0,0,0-2,11.65c-.16,3.65,0,7,0,9.73s0,5-.09,6.57c0,.78-.1,1.38-.14,1.79a2.39,2.39,0,0,1-.09.61,3.64,3.64,0,0,1,0-.62c0-.46,0-1.05,0-1.78,0-1.55,0-3.79-.08-6.57s-.22-6.07-.09-9.75a41.59,41.59,0,0,1,2-11.79A49.94,49.94,0,0,1,394,188.89c1.95-3.13,4-5.72,5.65-8a42.79,42.79,0,0,0,3.53-5.5c.36-.69.61-1.23.78-1.6A3.7,3.7,0,0,1,404.28,173.27Z" style="fill:#263238"></path><path d="M411.4,172.32a2.56,2.56,0,0,1-.08.61,16.62,16.62,0,0,1-.38,1.74,40.08,40.08,0,0,1-2.16,6.16c-1.09,2.54-2.61,5.46-4.28,8.69a74.45,74.45,0,0,0-4.74,10.79,124.52,124.52,0,0,0-5,20.85c-.39,2.73-.53,4.94-.66,6.48a4.22,4.22,0,0,1-.49,1.72,1.39,1.39,0,0,1-.41.47s.14-.16.32-.52a4.54,4.54,0,0,0,.38-1.69c.06-1.53.15-3.77.49-6.5a113.44,113.44,0,0,1,4.87-21,69.94,69.94,0,0,1,4.81-10.85c1.69-3.23,3.24-6.11,4.36-8.62a45.38,45.38,0,0,0,2.31-6.07C411.19,173.14,411.35,172.31,411.4,172.32Z" style="fill:#263238"></path><path d="M360.89,230c-.08,0,.1-1.1.19-2.87a29.74,29.74,0,0,0-.4-6.87,17.63,17.63,0,0,0-2.2-6.46,9.35,9.35,0,0,0-1.94-2,1.8,1.8,0,0,1,.71.34,6,6,0,0,1,1.54,1.49,16.22,16.22,0,0,1,2.4,6.58,25.14,25.14,0,0,1,.26,7A10,10,0,0,1,360.89,230Z" style="fill:#263238"></path><path d="M367.67,215.25a2.49,2.49,0,0,1-.4-.57,11.8,11.8,0,0,1-.83-1.82,14.88,14.88,0,0,1-.5-7.28,40.07,40.07,0,0,1,3.6-10.24c1.73-3.69,3.47-7.82,5.68-12a40.67,40.67,0,0,1,3.76-5.8,60.75,60.75,0,0,1,4.35-4.71c3-2.82,4.78-6,6.57-8.54s3.34-4.48,4.46-5.79c.56-.66,1-1.16,1.32-1.49a2.82,2.82,0,0,1,.49-.49,4.09,4.09,0,0,1-.41.55l-1.24,1.56c-1.07,1.35-2.59,3.32-4.31,5.87s-3.57,5.81-6.54,8.66a61.49,61.49,0,0,0-4.29,4.7,39.93,39.93,0,0,0-3.7,5.73c-2.2,4.14-3.95,8.27-5.7,11.95a40.83,40.83,0,0,0-3.68,10.1,15.29,15.29,0,0,0,.33,7.16A18.16,18.16,0,0,0,367.67,215.25Z" style="fill:#263238"></path><path d="M361.86,243.69a4.51,4.51,0,0,1,.12-1.13c.12-.72.31-1.76.56-3,.55-2.67,1.27-6.14,2.07-10A66.61,66.61,0,0,0,366,219.49c.12-2.59,0-4.2.09-4.21a5.35,5.35,0,0,1,.16,1.13c.05.36.07.81.09,1.33s0,1.11,0,1.76a55.56,55.56,0,0,1-1.21,10.15c-.77,3.91-1.64,7.4-2.22,9.94-.28,1.19-.52,2.19-.72,3A5.09,5.09,0,0,1,361.86,243.69Z" style="fill:#263238"></path><path d="M433.25,156.43a4.58,4.58,0,0,1,0,.74c0,.49-.08,1.2-.19,2.12a71.2,71.2,0,0,1-1.3,7.73,74.91,74.91,0,0,1-3.43,11.11c-.81,2-1.75,4.14-2.82,6.26a14.6,14.6,0,0,1-.89,1.62,2.85,2.85,0,0,1-1.71,1l-3.62.91-1.17.29.09-.46,4.25,3.12.21.15-.16.21-13.05,17-3.89,5-1.07,1.32a2.62,2.62,0,0,1-.39.44,3.38,3.38,0,0,1,.32-.5l1-1.37,3.77-5.08,12.91-17.1.05.36-4.25-3.11-.45-.33.54-.13,1.17-.3,3.62-.91a2.29,2.29,0,0,0,1.43-.77,11.66,11.66,0,0,0,.84-1.53c1.08-2.11,2-4.19,2.83-6.21a77.17,77.17,0,0,0,3.52-11c.77-3.2,1.2-5.84,1.46-7.66.12-.88.22-1.58.29-2.11A3,3,0,0,1,433.25,156.43Z" style="fill:#263238"></path><path d="M449.52,160.88a9,9,0,0,0-2.19.36,10.1,10.1,0,0,0-4.71,3.66,20.45,20.45,0,0,0-2.17,3.59,34.69,34.69,0,0,0-1.84,4.47,36,36,0,0,0-1.86,10.88c-.09,3.93,1,7.58,1.67,10.94s1.42,6.36,2,8.88,1.17,4.54,1.59,5.92c.23.69.39,1.23.53,1.58a3.4,3.4,0,0,1,.18.56,2.29,2.29,0,0,1-.28-.52c-.17-.34-.36-.87-.62-1.56-.49-1.37-1.09-3.38-1.76-5.89s-1.39-5.52-2.15-8.86c-.36-1.68-.75-3.44-1.14-5.27a26,26,0,0,1-.58-5.79,35.59,35.59,0,0,1,1.93-11,31.67,31.67,0,0,1,1.9-4.51,20,20,0,0,1,2.27-3.62,9.94,9.94,0,0,1,4.94-3.63,5.7,5.7,0,0,1,1.67-.23A2.13,2.13,0,0,1,449.52,160.88Z" style="fill:#263238"></path><path d="M437.82,237.28a2.29,2.29,0,0,1-.48-.13l-1.38-.43L430.83,235,413,229l-.2-.07,0-.21c.89-4.31,1.87-9,2.89-14l0-.2,0-.21H416c11.12.22,21.17,1,28.4,1.86,3.61.41,6.53.81,8.54,1.11l2.32.36a7.23,7.23,0,0,1,.8.16,4.17,4.17,0,0,1-.82-.06L453,217.5c-2-.24-4.95-.58-8.56-.95-7.24-.74-17.26-1.48-28.37-1.7l.26-.2,0,.19-2.92,14-.16-.28,17.76,6.22,5.09,1.83,1.34.51A2,2,0,0,1,437.82,237.28Z" style="fill:#263238"></path><path d="M455.38,215c0,.15-2.57.31-5.71.76s-5.66,1-5.7.85a20.61,20.61,0,0,1,5.63-1.36A20.11,20.11,0,0,1,455.38,215Z" style="fill:#263238"></path><path d="M406.33,266.16a5.85,5.85,0,0,1-.18-.66,2.82,2.82,0,0,0-1-1.44,2.64,2.64,0,0,0-2.48-.33,2.6,2.6,0,0,0,0,4.87,2.67,2.67,0,0,0,2.48-.33,2.82,2.82,0,0,0,1-1.44,6.56,6.56,0,0,1,.18-.67s.09.26,0,.72a2.77,2.77,0,0,1-1,1.68,3,3,0,0,1-2.88.49,3.06,3.06,0,0,1,0-5.77,3,3,0,0,1,2.88.49,2.74,2.74,0,0,1,1,1.68C406.42,265.91,406.36,266.17,406.33,266.16Z" style="fill:#263238"></path><path d="M405.78,240.11s-.06-.25-.19-.67a2.88,2.88,0,0,0-1-1.43,2.64,2.64,0,0,0-2.49-.33,2.59,2.59,0,0,0,0,4.86,2.64,2.64,0,0,0,2.49-.33,2.88,2.88,0,0,0,1-1.43c.13-.42.14-.67.19-.67a1.39,1.39,0,0,1,0,.72,2.87,2.87,0,0,1-1,1.68,3,3,0,0,1-2.87.49,3.06,3.06,0,0,1,0-5.78,3,3,0,0,1,2.87.49,2.87,2.87,0,0,1,1,1.68A1.39,1.39,0,0,1,405.78,240.11Z" style="fill:#263238"></path><g style="opacity:0.30000000000000004"><path d="M356.77,211.6a8.11,8.11,0,0,1,5.05,4.34,20.17,20.17,0,0,1,1.83,6.85,6.22,6.22,0,0,1-.5,4.16c-.36.58-1.26,1-1.67.47a1.21,1.21,0,0,1-.19-.55c-.5-2.8-.63-5.66-1.25-8.44s-1.19-5-3.37-6.82"></path></g><g style="opacity:0.30000000000000004"><path d="M404.28,214.52c7.31-3.06,12.76-9.77,17.06-16.42.93-1.44,1.84-2.89,2.75-4.34a6,6,0,0,0,1.09-2.6,2,2,0,0,0-1.43-2.17,2.81,2.81,0,0,0,3.13-1.22,8.25,8.25,0,0,0,1.13-3.41c.51-2.9,1.21-7.15,1.72-10-.8,2.08-2.54,5.55-3.34,7.63-.57,1.47-1.11,3.18-2.3,4.21-1.91,1.65-3.83,1.08-6.07,1.76,1.45.4,3.16,2.09,4.25,3.11-5.56,7.88-18,23.49-18,23.49"></path></g><path d="M398.17,93.72c-2,.4-4.17.1-6.16.66-2.88.82-5,3.35-6.12,6.14a29.37,29.37,0,0,0-1.53,8.81l-.56,8a25,25,0,0,1-.72,5.11c-.53,1.85-2,6.78-2.06,9.18a25.93,25.93,0,0,0,6,18.15c1.85,2.09,5.7,3,8.43,3.56l5.68-5c.2-.18-4.25-5-4.14-5.28a1.9,1.9,0,0,0-.12-1.3,64,64,0,0,1,2.7-47.67" style="fill:#e0e0e0"></path><path d="M398.76,161.64c-.15-10.45,0-14.37,0-14.31s-9-1.51-10.81-13.23c-.91-5.82-.6-15.37-.09-23.18.46-7,5.14-15.64,12.14-14.88l21.85,5.57a4.13,4.13,0,0,1,3.68,4.19h0l-2.46,55.64" style="fill:#ffcdb0"></path><path d="M392.17,118a1.5,1.5,0,0,0,1.44,1.52,1.43,1.43,0,0,0,1.55-1.35,1.5,1.5,0,0,0-1.44-1.52A1.43,1.43,0,0,0,392.17,118Z" style="fill:#263238"></path><path d="M390.6,115.89c.18.2,1.32-.64,2.94-.63s2.8.82,3,.62-.1-.44-.61-.82a4.13,4.13,0,0,0-2.39-.74,3.94,3.94,0,0,0-2.34.75C390.67,115.45,390.51,115.8,390.6,115.89Z" style="fill:#263238"></path><path d="M408,118.23a1.5,1.5,0,0,0,1.44,1.52A1.44,1.44,0,0,0,411,118.4a1.49,1.49,0,0,0-1.44-1.52A1.43,1.43,0,0,0,408,118.23Z" style="fill:#263238"></path><path d="M406.49,116.23c.18.2,1.32-.64,2.94-.64s2.8.82,3,.62-.1-.44-.61-.81a4.06,4.06,0,0,0-2.39-.74,3.94,3.94,0,0,0-2.34.75C406.57,115.79,406.4,116.14,406.49,116.23Z" style="fill:#263238"></path><path d="M400.59,128.2a11.16,11.16,0,0,0-2.62-.48c-.41,0-.8-.12-.87-.4a2.08,2.08,0,0,1,.27-1.23L398.6,123c1.71-4.47,2.94-8.15,2.76-8.21s-1.71,3.5-3.41,8l-1.18,3.16a2.37,2.37,0,0,0-.22,1.62,1.07,1.07,0,0,0,.68.61,3.35,3.35,0,0,0,.7.1A9.81,9.81,0,0,0,400.59,128.2Z" style="fill:#263238"></path><path d="M398.76,147.33a31.55,31.55,0,0,0,16.37-4.15s-4.65,8.23-16.37,7.11Z" style="fill:#eb996e"></path><path d="M401.27,132.1a2.9,2.9,0,0,1,2.61-1.07,2.63,2.63,0,0,1,1.84,1,1.68,1.68,0,0,1,.12,1.92,1.94,1.94,0,0,1-2.12.53,6.2,6.2,0,0,1-2.06-1.23,1.61,1.61,0,0,1-.46-.48.53.53,0,0,1,0-.6" style="fill:#B8945A"></path><path d="M405.35,129.33c-.26,0-.27,1.74-1.78,3s-3.37,1.05-3.38,1.29.41.35,1.2.37a4.36,4.36,0,0,0,2.83-1,3.78,3.78,0,0,0,1.37-2.5C405.66,129.76,405.47,129.32,405.35,129.33Z" style="fill:#263238"></path><path d="M405.77,111.54c.15.44,1.77.23,3.66.46s3.43.76,3.69.36c.11-.18-.16-.6-.77-1a6.44,6.44,0,0,0-5.6-.63C406.05,111,405.7,111.33,405.77,111.54Z" style="fill:#263238"></path><path d="M391.2,113c.28.36,1.4,0,2.74,0s2.47.25,2.73-.13c.12-.19-.06-.56-.55-.9a3.77,3.77,0,0,0-2.23-.61,3.81,3.81,0,0,0-2.18.73C391.23,112.39,391.08,112.77,391.2,113Z" style="fill:#263238"></path><path d="M410.51,114.21a12.59,12.59,0,0,1,2.23.74,14,14,0,0,1,1.95,1.31,4.73,4.73,0,0,0-1.86-1.49A4.61,4.61,0,0,0,410.51,114.21Z" style="fill:#eb996e"></path><path d="M389.44,115.62a7.72,7.72,0,0,1,1.5-1.05,7.61,7.61,0,0,1,1.77-.48,2.83,2.83,0,0,0-1.85.29A2.9,2.9,0,0,0,389.44,115.62Z" style="fill:#eb996e"></path><path d="M406.46,130.12s.08-.14.06-.4a1.68,1.68,0,0,0-1.22-1.43c-.25,0-.41,0-.41,0s.15.06.36.14a1.89,1.89,0,0,1,.72.52,1.94,1.94,0,0,1,.41.79C406.43,130,406.43,130.12,406.46,130.12Z" style="fill:#eb996e"></path><path d="M408.43,130.9s.14-.22.17-.63a2.51,2.51,0,0,0-.38-1.53,2.57,2.57,0,0,0-1.22-1,1.17,1.17,0,0,0-.64-.12s.23.08.58.25a2.69,2.69,0,0,1,1.52,2.4C408.47,130.65,408.4,130.89,408.43,130.9Z" style="fill:#eb996e"></path><path d="M396.71,95.25a2.79,2.79,0,0,1,1.2-1.64,16.67,16.67,0,0,1,12.72-2.9A29.7,29.7,0,0,1,422.83,96c3.2,2.22,6.22,4.93,7.84,8.47a28.25,28.25,0,0,1,1.9,8c.92,6.75,2.73,13.52,2.67,20.33,0,2.65.45,7.12,0,10.39-.48,3.5-3.87,7.76-7.32,8.54l-7.75.77s4.2-14.48,3.87-19.7c-.28-4.57-.24-9.59-.76-14.14a2.42,2.42,0,0,0-.27-1,2.48,2.48,0,0,0-1.06-.82l-4.85-2.47a48.32,48.32,0,0,1-4.56-2.55,46.19,46.19,0,0,1-4.62-3.64l-6.29-5.37A18.82,18.82,0,0,1,398,99.06a6.25,6.25,0,0,1-1-4.92" style="fill:#e0e0e0"></path><path d="M422.73,121.84a3.42,3.42,0,0,1,5-2.91c1.19.69,2.09,2.07,2,4.71-.29,7.06-7.32,5.31-7.32,5.11S422.59,124.76,422.73,121.84Z" style="fill:#ffcdb0"></path><path d="M424.66,126.17s.12.09.33.19a1.22,1.22,0,0,0,.91.06,3,3,0,0,0,1.52-2.67,4,4,0,0,0-.27-1.78,1.41,1.41,0,0,0-.88-1,.62.62,0,0,0-.74.31c-.11.19-.07.33-.1.34s-.15-.12-.08-.41a.75.75,0,0,1,.29-.43.94.94,0,0,1,.69-.15,1.74,1.74,0,0,1,1.24,1.14,4.16,4.16,0,0,1,.34,2c-.1,1.42-.88,2.72-1.91,3a1.34,1.34,0,0,1-1.12-.23C424.67,126.34,424.64,126.18,424.66,126.17Z" style="fill:#eb996e"></path><path d="M424.84,151.05c-.17,0-.12-1.12.2-3s.95-4.66,1.75-8a98.72,98.72,0,0,0,2.29-11.74,41.52,41.52,0,0,0,.23-6.92,22.4,22.4,0,0,0-1.41-7.07,10,10,0,0,0-1.8-2.92,12.91,12.91,0,0,0-2.66-2.18,38.85,38.85,0,0,0-6.17-3.12c-4.14-1.7-8.09-3-11.28-4.44s-5.67-3.31-6.73-5.1-1-3-.83-3,.45,1,1.65,2.4a15.76,15.76,0,0,0,6.61,4c3.18,1.22,7.12,2.28,11.47,3.92a38,38,0,0,1,6.65,3.2A15.35,15.35,0,0,1,428,109.6a12.64,12.64,0,0,1,2.29,3.67,24.09,24.09,0,0,1,1.55,7.94,39.07,39.07,0,0,1-.41,7.36,75.4,75.4,0,0,1-2.88,11.92c-1,3.3-1.93,5.94-2.54,7.76S425,151.09,424.84,151.05Z" style="fill:#fafafa"></path><path d="M431.19,150a3.59,3.59,0,0,1,.17-.75c.12-.48.33-1.18.54-2.1a51.57,51.57,0,0,0,1.28-7.87,55.6,55.6,0,0,0-.29-11.8c-.28-2.21-.68-4.52-1.22-6.88a33.91,33.91,0,0,0-2.2-7.11,15.93,15.93,0,0,0-4.75-5.61,31.31,31.31,0,0,0-6-3.48c-4.06-1.82-7.91-3.09-10.92-4.67a23.07,23.07,0,0,1-6.53-4.65,10.34,10.34,0,0,1-.82-1,6,6,0,0,1-.55-.74,3.61,3.61,0,0,1-.4-.65c.05,0,.59.87,1.92,2.2A23.7,23.7,0,0,0,408,99.38c3,1.53,6.85,2.75,11,4.57a31.07,31.07,0,0,1,6.11,3.51,16.26,16.26,0,0,1,4.9,5.78,33.81,33.81,0,0,1,2.24,7.23,65.79,65.79,0,0,1,1.19,6.93,53.92,53.92,0,0,1,.19,11.89,45.74,45.74,0,0,1-1.46,7.89c-.23.92-.48,1.61-.63,2.08A4,4,0,0,1,431.19,150Z" style="fill:#fafafa"></path><path d="M396.08,152.33a5.09,5.09,0,0,1-.68,0,12.45,12.45,0,0,1-1.95-.1,4.8,4.8,0,0,1-2.81-1.33,14.87,14.87,0,0,1-2.05-3.56,35.26,35.26,0,0,1-3.53-10,48.13,48.13,0,0,1-.54-6.28c-.08-2.17-.11-4.43,0-6.74.21-9.24,1.8-17.61,4.33-23.17a12,12,0,0,1,2.4-3.34,8.41,8.41,0,0,1,2.59-1.72,6.52,6.52,0,0,1,1.9-.5c.22,0,.39,0,.51,0s.17,0,.17,0a8.53,8.53,0,0,0-2.5.68A8.81,8.81,0,0,0,391.41,98a11.79,11.79,0,0,0-2.28,3.29c-2.4,5.5-3.94,13.84-4.14,23-.06,2.3,0,4.55,0,6.72a50.71,50.71,0,0,0,.5,6.21,36.1,36.1,0,0,0,3.39,9.95,15.36,15.36,0,0,0,1.93,3.52,4.66,4.66,0,0,0,2.63,1.33C395.13,152.34,396.08,152.26,396.08,152.33Z" style="fill:#fafafa"></path><circle cx="425.67" cy="129.22" r="1.39" style="fill:#263238"></circle><path d="M333.61,452.13l0,1.33s-22.54,8.74-22.83,13l44.55.31-.5-14.83C348.16,455,341.23,455.25,333.61,452.13Z" style="fill:#B8945A"></path><g style="opacity:0.6000000000000001"><path d="M350.26,456.64a1.82,1.82,0,0,1,1.25,2.08,1.75,1.75,0,0,1-2.06,1.25,1.9,1.9,0,0,1-1.3-2.21,1.81,1.81,0,0,1,2.28-1.06" style="fill:#fff"></path></g><g style="opacity:0.6000000000000001"><path d="M355.31,466.76l-.12-3.57-42.66,1s-2,.85-1.77,2.25Z" style="fill:#fff"></path></g><path d="M333.43,453.58c0,.22,1.1.32,2.16,1s1.63,1.63,1.83,1.54-.11-1.34-1.42-2.18S333.39,453.38,333.43,453.58Z" style="fill:#263238"></path><path d="M328.75,455.48c-.05.21.89.59,1.62,1.51s.94,1.9,1.16,1.9.36-1.24-.57-2.38S328.75,455.27,328.75,455.48Z" style="fill:#263238"></path><path d="M326.06,461.06c.19,0,.5-1-.05-2.24s-1.56-1.67-1.66-1.49.54.82,1,1.81S325.84,461,326.06,461.06Z" style="fill:#263238"></path><path d="M405.53,216l-16.28-7.42L378,209.71,372.69,216s0,1.86,1.14,1.57a7.24,7.24,0,0,0,2.43-1.43l.14,4.72s1.71,2,2.86,0l1.14,3.57s1.28,1.57,2.28,0l1.72,4.14a3.12,3.12,0,0,0,2-1.43,3.18,3.18,0,0,0,.28-2.14s5.57,1,7.86,1.71,13.56.43,13.56.43l5,1.43,2.3-11.73Z" style="fill:#ffcdb0"></path><path d="M386.84,210.31a6.12,6.12,0,0,0-2,0c-.61.12-1.33.35-2.15.6s-1.7.51-2.6.85a15.11,15.11,0,0,0-2.45,1.16,1.34,1.34,0,0,0-.66.78c-.1.33-.17.69-.24,1-.27,1.25-.34,2-.41,2a4.85,4.85,0,0,1,.05-2.09,8,8,0,0,1,.19-1.06,1.74,1.74,0,0,1,.81-1.06,12.85,12.85,0,0,1,2.52-1.24c.93-.36,1.84-.61,2.66-.84a16.93,16.93,0,0,1,2.23-.49A2.66,2.66,0,0,1,386.84,210.31Z" style="fill:#eb996e"></path><path d="M387.78,213.58a5.05,5.05,0,0,1-1.83.78c-1.17.37-2.85.64-4.6,1.15a3.17,3.17,0,0,0-1.12.48,4.69,4.69,0,0,0-.57,1,4.38,4.38,0,0,0-.52,2c0,.57.16,1.06.2,1.4s0,.54,0,.54-.09-.18-.19-.5a8.69,8.69,0,0,1-.37-1.42,4.46,4.46,0,0,1,.45-2.17,4.53,4.53,0,0,1,.65-1.18,3.34,3.34,0,0,1,1.33-.62c1.81-.53,3.48-.73,4.66-1A15.29,15.29,0,0,1,387.78,213.58Z" style="fill:#eb996e"></path><path d="M382.82,224.7c-.05,0-.44-.37-.85-1.22a2.7,2.7,0,0,1-.19-1.67,2.2,2.2,0,0,1,1.45-1.5,5.29,5.29,0,0,1,2-.24l1.58.05a6.71,6.71,0,0,1,1.07.1c.28.07.37.25.33.26s-.13-.06-.36-.06-.6.05-1,.07l-1.58.06a5.65,5.65,0,0,0-1.81.25,1.75,1.75,0,0,0-1.16,1.13,2.41,2.41,0,0,0,.07,1.42C382.6,224.17,382.9,224.66,382.82,224.7Z" style="fill:#eb996e"></path></g></svg>