<svg xmlns="http://www.w3.org/2000/svg" viewBox="0 0 500 500"><g id="freepik--Character--inject-137"><path d="M130,443.47l-.82,20.27s20.32,7.64,20.53,11.4L110.31,475l0-31.63Z" style="fill:#263238"></path><path d="M117,462a1.62,1.62,0,0,0-1.12,1.83,1.56,1.56,0,0,0,1.81,1.13,1.7,1.7,0,0,0,1.17-1.95,1.6,1.6,0,0,0-2-1" style="fill:#e0e0e0"></path><path d="M110.31,475l.12-3.18,37.69,1.37s1.75.77,1.54,2Z" style="fill:#455a64"></path><path d="M129.76,463.54c0,.19-1,.27-1.91.89s-1.46,1.42-1.64,1.34.12-1.19,1.28-1.91S129.81,463.36,129.76,463.54Z" style="fill:#fff"></path><path d="M133.88,465.27c.05.18-.79.5-1.44,1.31s-.85,1.67-1,1.66-.31-1.09.52-2.08S133.88,465.08,133.88,465.27Z" style="fill:#fff"></path><path d="M136.21,470.22c-.18,0-.44-.92.06-2s1.4-1.47,1.48-1.31-.48.72-.88,1.59S136.4,470.2,136.21,470.22Z" style="fill:#fff"></path><path d="M129.44,458.9c-.08.17-1-.1-2,0s-1.93.41-2,.24.72-.84,2-.91S129.54,458.75,129.44,458.9Z" style="fill:#fff"></path><path d="M81.68,443l-1.52,24.5,4.39,19.72a2.51,2.51,0,0,1-2.08,3h0a2.53,2.53,0,0,1-2.18-.73c-3.6-3.74-16.78-17.54-16.57-19.33.24-2.07-.12-25.95-.12-25.95Z" style="fill:#263238"></path><path d="M82.47,490.2,63.78,468.48l0,1a3.85,3.85,0,0,0,.8,2.49c1.49,1.89,5.71,7,15.68,17.46a2.52,2.52,0,0,0,2.25.73Z" style="fill:#455a64"></path><g style="opacity:0.6000000000000001"><path d="M69.12,460.77a1.52,1.52,0,0,1,.34,2,1.45,1.45,0,0,1-2,.35,1.6,1.6,0,0,1-.35-2.12,1.52,1.52,0,0,1,2.1-.14" style="fill:#fff"></path></g><path d="M77.29,479.27a7.61,7.61,0,0,1,2.22-1.83,7.89,7.89,0,0,1,2.85-.43c0-.06-.28-.26-.85-.36a3.91,3.91,0,0,0-2.22.3,4,4,0,0,0-1.7,1.44C77.28,478.88,77.23,479.25,77.29,479.27Z" style="fill:#fff"></path><path d="M78.91,482.62a19.33,19.33,0,0,1,2.21-1c1.28-.34,2.36-.06,2.41-.22a2.83,2.83,0,0,0-2.54-.3C79.52,481.49,78.78,482.55,78.91,482.62Z" style="fill:#fff"></path><path d="M74.2,474.93a25.68,25.68,0,0,1,3.31-1.73,24.61,24.61,0,0,1,3.68-.7,6.9,6.9,0,0,0-7,2.43Z" style="fill:#fff"></path><path d="M74,467.45c.06.15,1.43-.37,3.2-.36s3.15.48,3.21.33a4.84,4.84,0,0,0-3.21-.87A4.82,4.82,0,0,0,74,467.45Z" style="fill:#fff"></path><path d="M74.3,460.24a12.51,12.51,0,0,1,3.32-.46,12.06,12.06,0,0,1,3.22,1c0-.05-.21-.37-.76-.72a5.43,5.43,0,0,0-2.42-.77,5.37,5.37,0,0,0-2.5.41C74.57,459.91,74.27,460.19,74.3,460.24Z" style="fill:#fff"></path><path d="M77.63,458.41a2,2,0,0,0,.07-.93,6.46,6.46,0,0,0-.64-2.45,2.88,2.88,0,0,0-1.17-1.42,1,1,0,0,0-1.15.18,1.66,1.66,0,0,0-.43,1.1,3.55,3.55,0,0,0,3,3.4,4.12,4.12,0,0,0,4.13-2,1.48,1.48,0,0,0,.11-1.19,1,1,0,0,0-1-.56,3.53,3.53,0,0,0-1.64.77,7,7,0,0,0-1.75,1.84,2.17,2.17,0,0,0-.41.83,11.16,11.16,0,0,1,2.38-2.36,3.27,3.27,0,0,1,1.45-.64.53.53,0,0,1,.55.31.93.93,0,0,1-.12.77,3.66,3.66,0,0,1-3.6,1.69,3.07,3.07,0,0,1-2.57-2.85,1.18,1.18,0,0,1,.27-.78.55.55,0,0,1,.63-.11,2.54,2.54,0,0,1,1,1.18A9.28,9.28,0,0,1,77.63,458.41Z" style="fill:#fff"></path><path d="M144.58,273.18s.16,10.91-.56,25c-.29,5.45-11.77,157.13-11.77,157.13l-24.81.62,3.42-141.76-2,.5S96.81,375.4,96,385.21c-.77,8.81-10.59,72.94-10.59,72.94L62.68,459l5.13-84.63,6.39-81.24,2.58-23.66Z" style="fill:#455a64"></path><path d="M106.58,299.84a5,5,0,0,0,1,.56,12.27,12.27,0,0,0,3.1,1,6.34,6.34,0,0,0,2.29,0,4.68,4.68,0,0,0,2.36-1.2,5.75,5.75,0,0,0,1.39-2.57c.26-1,.41-2,.58-3,.69-4.11,1.14-7.86,1.38-10.57.12-1.36.2-2.46.24-3.22a6.08,6.08,0,0,0,0-1.19,4.85,4.85,0,0,0-.21,1.17l-.4,3.2c-.34,2.7-.84,6.42-1.52,10.52-.35,2-.57,4.08-1.8,5.31a5.2,5.2,0,0,1-4.26,1.23,14.13,14.13,0,0,1-3.07-.82A5.22,5.22,0,0,0,106.58,299.84Z" style="fill:#263238"></path><path d="M113.57,280.45s-.17-.13-.52-.14a2.2,2.2,0,0,0-1.37.48,2.49,2.49,0,0,0-1,1.94,2.46,2.46,0,0,0,4.23,1.47,2.49,2.49,0,0,0,.42-2.14,2.19,2.19,0,0,0-.79-1.23c-.28-.21-.48-.23-.49-.21a2.76,2.76,0,0,1,.91,1.52,2.19,2.19,0,0,1-.42,1.75,1.86,1.86,0,0,1-2,.44,1.88,1.88,0,0,1-1.34-1.61,2.2,2.2,0,0,1,.75-1.64A2.81,2.81,0,0,1,113.57,280.45Z" style="fill:#263238"></path><path d="M74.51,291.65a2.7,2.7,0,0,0,.85.11,15.53,15.53,0,0,0,2.33,0,22.58,22.58,0,0,0,13.78-6.22A16.63,16.63,0,0,0,93,283.79c.34-.44.51-.69.48-.71s-.85.87-2.3,2.16a25,25,0,0,1-13.56,6.12C75.72,291.59,74.51,291.56,74.51,291.65Z" style="fill:#263238"></path><path d="M134.57,280.38a13.4,13.4,0,0,0,1,2.49,28.66,28.66,0,0,0,3.2,5.22,22.49,22.49,0,0,0,4,4,6.71,6.71,0,0,0,1.85,1.16,20.41,20.41,0,0,0-1.72-1.48,29,29,0,0,1-3.87-4.08,35.87,35.87,0,0,1-3.23-5A25.24,25.24,0,0,0,134.57,280.38Z" style="fill:#263238"></path><path d="M207.76,154.44s1.41-8.55,1.18-9.57,3.47-10.08,3.47-10.08,2.59-.18,2.13,3.7-.74,5.46-.74,5.46l.37,1.11,6.19-2.22s8.88-5,10.55-5.74,5.18-2.49,6.75-.74c0,0,2.5-1.48,3.33-.37a2.08,2.08,0,0,1,.55,1.85l-1,1s.83-.09,1.07,1.3-9.94,8.6-9.94,8.6l-.28.74s7.58-3.7,8.14-3.15,1.11.93.18,1.94-20,13.79-22.47,14.8-3,1.32-3,1.32Z" style="fill:#ffbe9d"></path><path d="M239.88,138.77a40,40,0,0,1-5.28,3.68,40,40,0,0,1-5.55,3.24,39.45,39.45,0,0,1,5.27-3.68A39.76,39.76,0,0,1,239.88,138.77Z" style="fill:#eb996e"></path><path d="M237.81,136.57c.06.13-2.42,1.44-5.36,3.25s-5.25,3.41-5.34,3.29a25.11,25.11,0,0,1,5.06-3.74A24.32,24.32,0,0,1,237.81,136.57Z" style="fill:#eb996e"></path><path d="M215.19,157.46a4.28,4.28,0,0,0,.69-1.61,16.61,16.61,0,0,0-.18-4.33,55.94,55.94,0,0,0-1.5-6,14.23,14.23,0,0,1,2,5.95,13.16,13.16,0,0,1,0,4.48C216,157.11,215.2,157.53,215.19,157.46Z" style="fill:#eb996e"></path><path d="M82.65,163s-16.9,8.88-19.15,10.13,12.42,62.43,12.42,62.43L72.84,270a9.71,9.71,0,0,0,2.23,7.13h0s48.5,2.23,54,1.48c6.39-.87,14.31-2.16,15.56-5.41s-2.38-90-2.38-90L137,164.9s-5.75-.75-10.25-1.25S117,162.1,117,162.1l-3.28-5.2-27-1.59Z" style="fill:#2C3E50"></path><path d="M121.82,278.73a.94.94,0,0,1,0-.27c0-.2,0-.46,0-.77,0-.73,0-1.73,0-3,0-2.6-.07-6.36-.21-11s-.33-10.18-.64-16.32-.83-12.87-1.5-19.93-1.53-13.77-2.45-19.85-1.94-11.51-3-16l-.72-3.24c-.26-1-.5-2-.73-2.86-.45-1.79-.84-3.33-1.23-4.57l-.83-2.88c-.08-.31-.15-.55-.2-.75a1,1,0,0,1,0-.26s0,.08.1.24l.25.74c.23.69.53,1.64.93,2.85s.83,2.77,1.31,4.55l.77,2.86c.24,1,.49,2.11.76,3.24,1.09,4.52,2.1,10,3.09,16s1.8,12.8,2.5,19.87,1.13,13.81,1.45,20,.49,11.68.54,16.33.07,8.42,0,11c0,1.27,0,2.27,0,3,0,.31,0,.57,0,.77S121.82,278.73,121.82,278.73Z" style="fill:#263238"></path><path d="M135.34,195.33s27.93,1.48,35,0,27.23-13.54,31.12-17.56,14-13.32,14-13.32L208.7,152l-9.54,7.19s-27.58,13.54-29.7,13.54-18.74-.64-18.74-.64S141,165.51,137,164.9s-5.57,6.32-5.57,6.32Z" style="fill:#2C3E50"></path><path d="M142.2,183.18a12.91,12.91,0,0,1,.16,1.77c.08,1.13.15,2.78.24,4.81.16,4.07.3,9.69.46,15.89s.37,11.82.56,15.88c.1,2,.18,3.59.24,4.81a12.48,12.48,0,0,1,0,1.77,10.83,10.83,0,0,1-.24-1.76c-.12-1.13-.26-2.77-.4-4.8-.3-4.06-.56-9.68-.72-15.89s-.24-11.82-.31-15.89c0-2,0-3.59-.07-4.82A10.78,10.78,0,0,1,142.2,183.18Z" style="fill:#263238"></path><g style="opacity:0.30000000000000004"><path d="M141.26,227.43a4.86,4.86,0,0,0-3-3.61,12.87,12.87,0,0,0-4.77-.9A83.67,83.67,0,0,0,75.2,243.16l-.83,5.77c5.13,2.19,11.09.69,16.18-1.6s9.92-5.37,15.4-6.43c4.75-.92,9.87-.3,14.25-2.35,2.77-1.29,5-3.56,7.94-4.51,2.59-.84,5.42-.53,8.07-1.14S141.59,230.13,141.26,227.43Z"></path></g><path d="M63.5,173.15s-9.44,8.1-10.72,14.5-5.54,23.88-5.54,23.88-4.48,20.89-3.84,24.94,2,13.09,10.73,14.16,39.16-10.11,39.16-10.11l8.32-3.41-3.2-15.35-14.29,3.63-14,1.11L72,213.74l3.1-8.2s-.17-8.94-3.58-16.4S63.5,173.15,63.5,173.15Z" style="fill:#2C3E50"></path><path d="M115.64,214.45l11-22.5a4.48,4.48,0,0,1,4-2.49h27.73a1.36,1.36,0,0,1,1.2,2l-18.77,35a3,3,0,0,1-2.67,1.6H109.42Z" style="fill:#455a64"></path><path d="M159.44,191.63a2.15,2.15,0,0,1-.55,0l-1.59,0h-5.85l-19.25-.16a5.33,5.33,0,0,0-2.56.62,4.68,4.68,0,0,0-1.7,1.88c-.81,1.54-1.49,3.14-2.19,4.6l-3.68,7.84-2.52,5.27c-.29.58-.52,1.05-.71,1.42a2.45,2.45,0,0,1-.28.49,2.07,2.07,0,0,1,.19-.53c.16-.39.37-.87.62-1.46l2.37-5.34,3.58-7.89c.69-1.48,1.34-3,2.17-4.65a5.31,5.31,0,0,1,1.89-2.08,6,6,0,0,1,2.8-.69c7.55,0,14.34.21,19.28.31l5.84.17,1.59.07A2,2,0,0,1,159.44,191.63Z" style="fill:#263238"></path><path d="M142.35,196.56a.91.91,0,0,1,.42,1.39,1.34,1.34,0,0,1-1.47.55,1,1,0,0,1-.77-.73,1.28,1.28,0,0,1,.85-1.28A1.92,1.92,0,0,1,142.35,196.56Z" style="fill:#fff"></path><path d="M98.69,223.12l1.91-2s2.81-4.08,4-5.36,8-5.75,8-5.75,3.33-4.5,3.84-4.5,2.12.29,1.69,2.38a32.58,32.58,0,0,1-1.82,6l14.72.33a3.12,3.12,0,0,1,2.4,1.14c.38.5.54,1-.15,1.38a70.33,70.33,0,0,1-7.78,2.3l2.79-.72s.6,2.67-1.17,3.94a9.39,9.39,0,0,0-1.88,1.5s-.09,2.53-.85,3.55-9.06,5.29-9.06,5.29-5.3,1.56-8,1.44-5.44,1.39-5.74,1.47S98.69,223.12,98.69,223.12Z" style="fill:#ffbe9d"></path><path d="M117.72,214a29.66,29.66,0,0,1-4.13.46,16.43,16.43,0,0,1-4.17.21,17.55,17.55,0,0,1,4.12-.73A11.8,11.8,0,0,1,117.72,214Z" style="fill:#eb996e"></path><path d="M115.76,220.56c-.05-.16,2.64-.89,6-1.28,1.68-.21,3.21-.36,4.31-.48a8.2,8.2,0,0,1,1.8-.14,5.19,5.19,0,0,1-1.75.5c-1.09.22-2.61.43-4.29.64C118.47,220.19,115.79,220.68,115.76,220.56Z" style="fill:#eb996e"></path><path d="M115.76,225.38c0-.15,2.14-.22,4.73-.67s4.64-1.09,4.7-1a12.79,12.79,0,0,1-4.61,1.46A12.91,12.91,0,0,1,115.76,225.38Z" style="fill:#eb996e"></path><path d="M116.65,230.78c-.15,0-.36-.56-.48-1.29s-.11-1.36,0-1.38.35.55.47,1.29S116.79,230.75,116.65,230.78Z" style="fill:#eb996e"></path><path d="M115.33,224.31c-.15,0-.23-.49-.48-1s-.57-.87-.49-1,.64.11,1,.76S115.47,224.34,115.33,224.31Z" style="fill:#eb996e"></path><path d="M113.65,217.84c-.15,0-.3-.29-.48-.64s-.33-.66-.23-.76.48.08.7.53S113.79,217.83,113.65,217.84Z" style="fill:#eb996e"></path><path d="M110.18,177a5.39,5.39,0,0,1-.84-.49L107,175.1c-1-.6-2.2-1.31-3.56-2.15a33.77,33.77,0,0,1-4.36-3.06l.38-.07a14.49,14.49,0,0,0-1.57,7.11v0l0,.59-.45-.38c-4.32-3.69-8.21-7.08-10.91-9.66-1.35-1.29-2.42-2.35-3.13-3.11a8.86,8.86,0,0,1-1.07-1.22,9.46,9.46,0,0,1,1.21,1.07l3.24,3c2.76,2.5,6.67,5.84,11,9.54l-.43.21v0A14.58,14.58,0,0,1,99,169.6l.14-.28.24.21a35.21,35.21,0,0,0,4.25,3.08l3.5,2.23c1,.63,1.74,1.14,2.25,1.52A3.87,3.87,0,0,1,110.18,177Z" style="fill:#263238"></path><path d="M117,162.1a5.18,5.18,0,0,1,.56,1.08c.33.71.76,1.76,1.26,3.06s1.06,2.87,1.59,4.65c.14.45.26.91.36,1.39a2.38,2.38,0,0,1,.07.83.37.37,0,0,1-.43.29.43.43,0,0,1-.22-.13l-.06-.08-.23-.29-1.9-2.47-2.46-3.21.42,0c-1.53,2.9-2.93,5.39-4,7.12-.53.87-1,1.54-1.29,2a3.48,3.48,0,0,1-.54.67,3.47,3.47,0,0,1,.39-.77c.32-.56.71-1.25,1.16-2.06,1-1.77,2.32-4.28,3.83-7.2l.18-.35.24.32c.78,1,1.61,2.07,2.46,3.18l1.89,2.46.22.3.06.07-.09.1h0l-.13,0a3,3,0,0,0-.06-.62c-.1-.46-.21-.92-.34-1.36-.49-1.76-1-3.33-1.48-4.65l-1.09-3.12A5.29,5.29,0,0,1,117,162.1Z" style="fill:#263238"></path><path d="M208.32,171.1a9.22,9.22,0,0,1-1.47-1.68c-.86-1.07-2-2.58-3.18-4.32a30.41,30.41,0,0,1-2.66-4.69,5.65,5.65,0,0,1-.62-2.15c.08,0,.33.78,1,2a46.6,46.6,0,0,0,2.76,4.56C206.44,168.25,208.46,171,208.32,171.1Z" style="fill:#263238"></path><path d="M88.51,242.15a14.54,14.54,0,0,1-.79-2.44c-.43-1.51-1-3.61-1.62-5.94s-1.07-4.47-1.34-6a11.84,11.84,0,0,1-.3-2.55,13.59,13.59,0,0,1,.66,2.47c.36,1.54.88,3.65,1.48,6s1.14,4.44,1.48,6A11.65,11.65,0,0,1,88.51,242.15Z" style="fill:#263238"></path><path d="M92.34,227.26c0,.07-.29.28-.36.81a1.14,1.14,0,0,0,.22.82.92.92,0,0,0,.92.24.9.9,0,0,0,.7-.64,1,1,0,0,0-.19-.82c-.3-.45-.7-.48-.69-.56s.48-.19,1,.32a1.4,1.4,0,0,1,.37,1.15,1.36,1.36,0,0,1-1.05,1.06,1.33,1.33,0,0,1-1.41-.46,1.39,1.39,0,0,1-.21-1.18C91.83,227.31,92.34,227.2,92.34,227.26Z" style="fill:#263238"></path><path d="M52.4,225.07a9.59,9.59,0,0,1,2.57-.68,25.59,25.59,0,0,1,12.67,1,9.62,9.62,0,0,1,2.42,1.08,22.67,22.67,0,0,1-2.53-.73,32.29,32.29,0,0,0-6.21-1.14,33,33,0,0,0-6.3.13A24.42,24.42,0,0,1,52.4,225.07Z" style="fill:#263238"></path><path d="M61.23,221.26a11.35,11.35,0,0,1,5,1.64,11.32,11.32,0,0,1,4.08,3.37c-.11.11-1.81-1.54-4.33-2.91S61.19,221.41,61.23,221.26Z" style="fill:#263238"></path><path d="M73.17,206.19a2,2,0,0,1,0,.37c0,.26-.08.61-.13,1-.13,1-.32,2.3-.55,4-.51,3.5-1.22,8.47-2.1,14.53v0q0,.19,0,.42l-.22-.22,15-1.41h0l13.28-3.38.26-.07,0,.27c.26,1.21.53,2.51.8,3.82.83,4,1.63,7.85,2.4,11.53l0,.21-.2.08a235.67,235.67,0,0,1-28,9.65c-3.57,1-6.44,1.65-8.42,2.1l-2.28.5-.59.11c-.13,0-.2,0-.2,0s.06,0,.19-.07l.58-.16,2.26-.58c2-.5,4.82-1.24,8.37-2.25a252,252,0,0,0,27.9-9.8l-.15.28L99,225.64c-.27-1.31-.54-2.61-.8-3.83l.32.2-13.28,3.36h0l-15,1.33-.24,0v-.24l0-.42h0c1-6.05,1.73-11,2.27-14.5.28-1.69.5-3,.66-4,.08-.43.14-.77.18-1A1.8,1.8,0,0,1,73.17,206.19Z" style="fill:#263238"></path><path d="M74.17,191.12a23.4,23.4,0,0,1-.65-2.56,29.5,29.5,0,0,0-5.61-11.25,23.33,23.33,0,0,1-1.65-2.06,9.41,9.41,0,0,1,1.93,1.82,24.78,24.78,0,0,1,5.69,11.41A9.18,9.18,0,0,1,74.17,191.12Z" style="fill:#263238"></path><g style="opacity:0.30000000000000004"><path d="M74.68,196.32c-1.21,6.56-2.07,14-3.11,20.56.24.3.11,1.29.36,1.6a82.08,82.08,0,0,0,3.49-11A26.22,26.22,0,0,0,74.68,196.32Z"></path></g><g style="opacity:0.30000000000000004"><path d="M100.43,175.29l9,1.25a65.26,65.26,0,0,1-10.17-6.83c-1.12,2.64-1.75,3.61-1.56,7.43-4.36-3.66-8.48-7.84-12.84-11.5A75.9,75.9,0,0,0,101.14,183,28.94,28.94,0,0,1,100.43,175.29Z"></path></g><path d="M209.41,162.5c0,.07-.24.22-.29.65a.76.76,0,0,0,.17.63.63.63,0,0,0,.71.12.64.64,0,0,0,.45-.55.81.81,0,0,0-.28-.59c-.32-.29-.64-.23-.66-.3s.34-.31.87,0a1.11,1.11,0,0,1,.55.88,1.09,1.09,0,0,1-.75,1,1.1,1.1,0,0,1-1.26-.3,1.12,1.12,0,0,1-.16-1C209,162.48,209.42,162.43,209.41,162.5Z" style="fill:#263238"></path><path d="M96.09,96.81A4.83,4.83,0,0,1,101,94.19a6.58,6.58,0,0,1,8.11-.13,5.87,5.87,0,0,1,9,4.48,4.9,4.9,0,0,1,4.56,8.1,4.71,4.71,0,0,1-1.66,9.22L97.16,102.28A4.81,4.81,0,0,1,96.09,96.81Z" style="fill:#263238"></path><path d="M124.07,141.93c-.12-5.18-1.22-15.82-2.34-25.44A20,20,0,0,0,101.2,98.83l-1,0C89,99.91,83.71,109.93,85.06,121l3.13,35,21.52,19.57,4.69-13.83-.75-7S124.31,152.64,124.07,141.93Z" style="fill:#ffbe9d"></path><path d="M113.74,154.66A26,26,0,0,1,99.56,151s3.57,7.6,14.23,6.26Z" style="fill:#eb996e"></path><path d="M119,125.81a1.53,1.53,0,0,1-1.42,1.59,1.47,1.47,0,0,1-1.63-1.32,1.54,1.54,0,0,1,1.42-1.6A1.47,1.47,0,0,1,119,125.81Z" style="fill:#263238"></path><path d="M119.61,121.82c-.18.2-1.37-.62-3-.55s-2.83.92-3,.73.09-.46.6-.86a4.16,4.16,0,0,1,2.4-.83A4,4,0,0,1,119,121C119.52,121.37,119.7,121.72,119.61,121.82Z" style="fill:#263238"></path><path d="M104.09,126.61a1.53,1.53,0,0,1-1.42,1.6,1.46,1.46,0,0,1-1.62-1.33,1.53,1.53,0,0,1,1.42-1.59A1.45,1.45,0,0,1,104.09,126.61Z" style="fill:#263238"></path><path d="M103.44,122.69c-.18.2-1.37-.61-3-.55s-2.82.92-3,.73.09-.45.61-.86a4.16,4.16,0,0,1,2.4-.83,4,4,0,0,1,2.41.69C103.35,122.24,103.53,122.59,103.44,122.69Z" style="fill:#263238"></path><path d="M109.84,134.69a10.48,10.48,0,0,1,2.66-.58c.42-.06.81-.15.87-.44a2.13,2.13,0,0,0-.32-1.24l-1.36-3.16c-1.88-4.49-3.26-8.2-3.08-8.27s1.86,3.51,3.74,8c.46,1.1.89,2.16,1.31,3.17a2.51,2.51,0,0,1,.27,1.65,1,1,0,0,1-.67.63,2.49,2.49,0,0,1-.71.13A10.87,10.87,0,0,1,109.84,134.69Z" style="fill:#263238"></path><path d="M105,136c.26,0,.33,1.77,1.9,3s3.47.95,3.49,1.2-.41.36-1.21.41a4.37,4.37,0,0,1-2.91-.9,3.89,3.89,0,0,1-1.49-2.5C104.73,136.44,104.91,136,105,136Z" style="fill:#263238"></path><path d="M103.64,116.22c-.14.45-1.8.3-3.72.6s-3.47.88-3.74.49c-.12-.19.14-.62.75-1.08a6.32,6.32,0,0,1,2.75-1.07,6.26,6.26,0,0,1,2.94.25C103.34,115.67,103.7,116,103.64,116.22Z" style="fill:#263238"></path><path d="M118.84,117.07c-.27.39-1.42,0-2.79.07s-2.51.34-2.79,0c-.12-.18,0-.56.54-.93a3.93,3.93,0,0,1,2.25-.7,3.88,3.88,0,0,1,2.25.68C118.79,116.51,119,116.89,118.84,117.07Z" style="fill:#263238"></path><path d="M120.53,111.62s-3.06-6.61-6.35-8.07c-4-1.75-5.52,2.6-9.28,1.69s-7.57-2.6-11.29.42c-4.06,3.3-2,5.45-2.12,10.21-.38,19.31-3.71,24.88-5,15.84-.15-1-2.93-1.69-3.49-5.88-.72-5.43-1.16-12-.08-15.94.91-3.3,2.69-5.61,5.94-8.21,5.12-4.1,12.34-4.44,17.27-4.12S120.69,103.2,120.53,111.62Z" style="fill:#263238"></path><path d="M87.14,131.39a2.91,2.91,0,0,0-3.24-2.69c-2,.26-4.17,1.47-3.9,5.59.49,7.32,7.74,5.32,7.73,5.11S87.37,134.45,87.14,131.39Z" style="fill:#ffbe9d"></path><path d="M86,136.75s-.12.1-.33.21a1.3,1.3,0,0,1-.95.09A3.18,3.18,0,0,1,83,134.31a4.25,4.25,0,0,1,.23-1.84,1.5,1.5,0,0,1,.9-1.05.65.65,0,0,1,.77.3c.11.2.08.35.12.36s.15-.13.07-.43a.84.84,0,0,0-.32-.44,1,1,0,0,0-.72-.14,1.8,1.8,0,0,0-1.25,1.22,4.27,4.27,0,0,0-.31,2.07c.15,1.47,1,2.8,2.07,3a1.39,1.39,0,0,0,1.15-.27C86,136.93,86,136.76,86,136.75Z" style="fill:#eb996e"></path><path d="M86.79,117.2a7,7,0,0,0,3.15,1.32,2.39,2.39,0,0,0,2.59-1.77c.07-.52-.07-1.1.25-1.51s1.12-.36,1.74-.32a4.68,4.68,0,0,0,4.74-3.52,2,2,0,0,0,2.64.16,11,11,0,0,0,1.92-2.2,3,3,0,0,1,2.47-1.35,7.51,7.51,0,0,0,1.6.3c1-.12,1.39-1.27,1.5-2.23s.19-2.07,1-2.62,1.72-.26,2.61-.16,2-.15,2.22-1a1.69,1.69,0,0,0-.37-1.31,4.73,4.73,0,0,0-5.66-1.6,6.44,6.44,0,0,0-11.86-.84A6.53,6.53,0,0,0,87,101.26a4.74,4.74,0,0,0-5.1,7.07A4.47,4.47,0,0,0,79.54,112c0,1.52,1.55,3,3,2.53A2.62,2.62,0,0,0,87.16,117" style="fill:#263238"></path><path d="M82,114.52a1.79,1.79,0,0,0,.51,1.39,2.35,2.35,0,0,0,1.5.83,2.58,2.58,0,0,0,2.06-.68l-.31,0a7.63,7.63,0,0,0,1.53,1.78,4.22,4.22,0,0,0,1.36.78,3,3,0,0,0,1.48.09,2.9,2.9,0,0,0,2.07-1.29,4.11,4.11,0,0,0,.54-1.54,1.72,1.72,0,0,0,0-.6,2,2,0,0,0-.2.56,4.8,4.8,0,0,1-.63,1.41,3,3,0,0,1-4.39.26,7.29,7.29,0,0,1-1.46-1.66L86,115.6l-.18.17a2.24,2.24,0,0,1-1.75.63,2.2,2.2,0,0,1-1.35-.66A3.64,3.64,0,0,1,82,114.52Z" style="fill:#455a64"></path><path d="M102.55,137.15c.12,0,.14-.78.74-1.44s1.34-.79,1.33-.91-.2-.11-.54,0a2.18,2.18,0,0,0-1.63,1.86C102.42,137,102.5,137.15,102.55,137.15Z" style="fill:#eb996e"></path><path d="M101.83,135.15c.11.06.37-.21.75-.39s.74-.25.76-.37-.45-.27-1,0S101.73,135.1,101.83,135.15Z" style="fill:#eb996e"></path><path d="M115.24,93.94c0-.07.79.4,1.38,1.62a6.22,6.22,0,0,1,.66,2.26,4.14,4.14,0,0,1-.76,2.81,5.9,5.9,0,0,1-2.28,1.77,17,17,0,0,1-2.16.82,10,10,0,0,1-2,.53,7.71,7.71,0,0,1,1.92-.88c.61-.24,1.32-.52,2.07-.9a5.75,5.75,0,0,0,2.08-1.65,3.81,3.81,0,0,0,.7-2.47,6.53,6.53,0,0,0-.51-2.14A8.38,8.38,0,0,0,115.24,93.94Z" style="fill:#e0e0e0"></path><path d="M119.89,98.75c.06,0,.11.47-.09,1.18a5.38,5.38,0,0,1-1.52,2.42,5.46,5.46,0,0,1-2.53,1.33c-.73.14-1.19,0-1.19,0s.44-.13,1.09-.35a6.5,6.5,0,0,0,2.28-1.35,6.41,6.41,0,0,0,1.52-2.16C119.72,99.18,119.81,98.74,119.89,98.75Z" style="fill:#e0e0e0"></path></g></svg>
