<svg xmlns="http://www.w3.org/2000/svg" viewBox="0 0 500 500"><g id="freepik--Character--inject-56"><path d="M177.76,470.72c-2.25.75-66.43.56-68.88-1-.92-.58-1.44-9.94-1.75-21.25Q107,444.8,107,441c0-3-.08-6.11-.1-9.1-.08-13.4.1-25.21.1-25.21h41.79l0,25.21V441l-.22,7.53s24.55,11.07,27,13.06S180,470,177.76,470.72Z" style="fill:#eb9481"></path><path d="M177.76,470.72c-2.24.75-66.44.56-68.87-1-.87-.54-1.38-8.69-1.69-18.94,5.15,2.38,49.53,11.49,60,11.61,10,.1-5.93-8-8.49-9.25,7.07,3.28,15.45,7.27,16.85,8.39C178,463.53,180,470,177.76,470.72Z" style="fill:#263238"></path><path d="M84.41,215s21.9,110,23.44,118.12c.36,1.85-4.23,108.54-4.23,108.54h47.92s0-94.24-1.94-110.46S122.84,215,122.84,215Z" style="fill:#263238"></path><path d="M84.41,215S95.06,268.53,102,303.66L122.84,215Z" style="fill:#37474f"></path><path d="M143.57,429.88c-.68-26.63-1.25-70.18-2-96.71-2.73-15.28-7.32-37.39-10.24-52.72l-4.05-21.12c5.23,23.93,10.83,49.59,15.26,73.75.83,32.27.9,64.52,1,96.8Z" style="fill:#455a64"></path><path d="M122.61,471.18c-2.26.72-66.44-.08-68.87-1.66-.92-.59-1.35-9.95-1.54-21.27-.05-2.44,1.59-41.61,1.59-41.61l40.44.18-.65,41.83S118,460,120.49,462,124.85,470.46,122.61,471.18Z" style="fill:#eb9481"></path><path d="M122.6,471.18c-2.25.73-66.43-.08-68.86-1.66-.82-.53-1.24-8-1.47-17.56,9.3,2.8,49,10,58.75,9.88,8.88-.09-2.71-6.16-7.3-8.41,7,3.34,15.37,7.41,16.76,8.55C123,464,124.86,470.46,122.6,471.18Z" style="fill:#263238"></path><path d="M96.93,442.51H48.13s9.24-72.08,10-84.19c.37-6.18,4.31-73.26,7.89-103A56.84,56.84,0,0,1,71.92,215h51s-.81,22-6.66,36.67A89.65,89.65,0,0,0,103,257.55s-2.57,91.63-3.39,107.36C98.53,384.92,96.93,442.51,96.93,442.51Z" style="fill:#263238"></path><path d="M90,436.89c1-29.28,3.71-69.69,4.76-99.1.54-23.86,1.32-53.25,2.14-77.14-.21,23.93-.71,53.29-1.19,77.18-1,29.45-3.87,69.78-5.71,99.06Z" style="fill:#455a64"></path><path d="M117.31,124.91c-6.32,7.74-1.5,14.32-4.28,16.83-7.25,6.54-2.24,8.88-4.15,11.27-1.57,2-7.79,3.54-5.57,10.57l28.51-.05c.85-4.69-3.86-7.2-4.16-10.51s3.63-6.61-2.66-13.67C120.92,134.77,120.34,121.19,117.31,124.91Z" style="fill:#263238"></path><path d="M116.49,120.11s3.81,1.25,4.83,3.83c1.66,4.21.7,11.21.7,11.21Z" style="fill:#263238"></path><path d="M100.82,164.43c1.8,12.61,18.38,45.2,27.24,49.55,6.41,3.14,36.8-5.24,45.59-9,8.48-3.62-5.91-29.27-11-27.49-7.24,2.51-24.45,11.27-27.17,10.64-1.9-.45-10.69-10.22-23.59-27.09C104.7,151.72,99.75,156.91,100.82,164.43Z" style="fill:#eb9481"></path><path d="M174.31,171.19c4.53-.52,9.67-1.47,14.3-.32s7.07,8.18,6.67,9.94-4.68,12.31-9.33,11.24.1-8.84.14-9.85.16-2.27-.74-2.39-17.92,3.64-17.92,3.64Z" style="fill:#eb9481"></path><path d="M174.46,171.89c.26.07,13.85-2,18.47-.82s7.08,8.18,6.67,9.93-4.68,12.32-9.32,11.25.09-8.85.14-9.85.15-2.28-.74-2.39-17.92,3.64-17.92,3.64Z" style="fill:#eb9481"></path><path d="M188.83,191.3a5.8,5.8,0,0,1-.14-2.93,10.05,10.05,0,0,1,.85-2.93A15.8,15.8,0,0,0,190.7,183a5.25,5.25,0,0,0-.09-2.61c-.2-.73-.94-.67-1.57-.6a26,26,0,0,0-2.79.56c-1,.24-2,.5-3,.75a24.49,24.49,0,0,0-3,.86c-.07,0-.06.15,0,.14a23.45,23.45,0,0,0,2.6-.52q1.47-.32,2.94-.6c.91-.18,1.82-.41,2.74-.57a2.79,2.79,0,0,1,1.31-.09c.34.17.31,1.08.33,1.38a4.53,4.53,0,0,1-.74,2.47,13.58,13.58,0,0,0-1.07,2.44,6.89,6.89,0,0,0-.36,2.47,9.94,9.94,0,0,0,.64,2.25C188.71,191.46,188.88,191.39,188.83,191.3Z" style="fill:#263238"></path><path d="M156.91,180.7s15.58-8.77,18.8-10.49c6.46-3.44,31.24-7.48,34.47-7.08s2.89,7.12-14,10.31c-8.92,1.68-11.43,6-11.86,8.59s.91,8,5.26,8.85,8.62-4.79,12.75-4.58-.16,6.9-3.94,10.46a27.18,27.18,0,0,1-13.73,6.4c-4.06.55-16.79,2.87-16.79,2.87Z" style="fill:#eb9481"></path><path d="M195.61,189.07c-1.92.89-4.14,2.1-6.3,1.69s-3.34-2.2-4-4.24a8.44,8.44,0,0,1,.24-6.25,10.43,10.43,0,0,1,4.08-4.17,25.24,25.24,0,0,1,6.76-2.55c.11,0,.06-.18-.05-.16-2.2.43-9,1.54-11.47,6.73a8.62,8.62,0,0,0-.2,6.37c.57,1.94,1.58,3.92,3.64,4.58,2.51.79,5.18-.78,7.38-1.91C195.82,189.11,195.71,189,195.61,189.07Z" style="fill:#263238"></path><path d="M162,177.69l3.59,33.59s-30.64,7.51-38.32,3.33-23-33-26.94-49.29c-2.37-9.9,4.24-14.63,12.7-4.4,8.69,10.52,20.94,25.13,22,25.79S162,177.69,162,177.69Z" style="fill:#B8945A"></path><path d="M100.35,165.32c3.9,16.27,19.26,45.1,26.94,49.28,2.35,1.28,6.85,1.46,12,1.11l-31.73-59.62v0h0c-.29-.14-.57-.28-.84-.38a3.75,3.75,0,0,0-.43-.16,5.53,5.53,0,0,0-1-.25,3.18,3.18,0,0,0-.43-.06l-.44,0a4.17,4.17,0,0,0-1.88.44,3.35,3.35,0,0,0-.77.54C100,157.73,99.33,161,100.35,165.32Z" style="opacity:0.1"></path><path d="M158.24,210.14c.06-1.14-.09-2.29-.14-3.43s-.14-2.28-.24-3.42c-.18-2.19-.4-4.38-.63-6.57s-.47-4.38-.71-6.57-.38-4.58-.8-6.81a.08.08,0,0,0-.16,0c0,2.28.3,4.58.48,6.84s.36,4.47.55,6.71.39,4.47.62,6.7c.12,1.1.24,2.19.4,3.28a32.6,32.6,0,0,0,.49,3.29C158.12,210.26,158.24,210.22,158.24,210.14Z" style="fill:#263238"></path><path d="M124.74,219.66s-39.48,1.71-56.19-.27c0,0,11.43-48.25,23.61-61.25,5.54-5.92,11-5,15.54-1.21,1.14.95,15.34,19,16.54,25.24,1.06,5.55-3.45,11.71-3.45,11.71Z" style="fill:#ebebeb"></path><polygon points="103.59 169.12 105.69 164.73 109.23 168.09 108.61 171.32 105.19 171.7 103.59 169.12" style="fill:#455a64"></polygon><polygon points="105.19 171.7 106.05 204.49 113.43 219 118.26 204.5 108.61 171.32 105.19 171.7" style="fill:#455a64"></polygon><path d="M107.25,156.35s6.07,16.35,6.44,20.55-1.51,20-1.51,20-9.25-16.64-11.49-22c-3.48-8.36-4.26-20-4.26-20s-3.46,1.58-8,7.82c-6.09,8.35-17.09,39.73-20.69,57.21l41.58,6,4.13-6.84,2.84,6.84,9.86-5.5-5.34-26.46s5.16-5.62,3-13.21C121.43,172.42,107.25,156.35,107.25,156.35Z" style="fill:#B8945A"></path><path d="M112.18,196.86A160.61,160.61,0,0,1,113.43,219a159.06,159.06,0,0,1-1.25-22.14Z" style="fill:#263238"></path><path d="M108.48,201.66a.91.91,0,1,0,1.82,0,.91.91,0,0,0-1.82,0Zm0,0a1.29,1.29,0,0,1,2.57,0,1.29,1.29,0,0,1-2.57,0Z" style="fill:#263238"></path><path d="M108.82,208.51a.91.91,0,0,0,1.82,0,.91.91,0,0,0-1.82,0Zm0,0a1.29,1.29,0,0,1,2.57,0,1.29,1.29,0,0,1-2.57,0Z" style="fill:#263238"></path><path d="M109.17,215.36a.91.91,0,0,0,1.82,0,.91.91,0,1,0-1.82,0Zm0,0a1.28,1.28,0,1,1,2.56,0,1.28,1.28,0,0,1-2.56,0Z" style="fill:#263238"></path><polygon points="95.18 203.13 80.53 200.48 80.07 202.37 94.84 205.04 95.18 203.13" style="fill:#000102;opacity:0.1"></polygon><path d="M119.13,171.92c-.06-.1.1-.18.16-.09a41.81,41.81,0,0,1,2.69,4.29c-.32-1-.68-1.91-1.07-2.84a0,0,0,0,1,.07,0,23.43,23.43,0,0,1,1.44,3.7c1.86,3.72,2.89,7.77,1.74,12a10.89,10.89,0,0,1-1.82,3.75,8.47,8.47,0,0,0-1.12,1.54c0,.23.53,2.54.63,3.05.72,3.63,1.49,7.26,2.25,10.88.42,2,.83,4.05,1.22,6.08a59.16,59.16,0,0,1,1,5.91c0,.09-.13.1-.16,0a93.62,93.62,0,0,1-2.42-10.58q-1.06-5.33-2.15-10.64a44,44,0,0,1-.88-4.91c.11-.13.57-1,.92-1.46a10.19,10.19,0,0,0,1.09-1.79,14.16,14.16,0,0,0,.92-8.76A29.46,29.46,0,0,0,119.13,171.92Z" style="fill:#263238"></path><path d="M114.27,195.47a43.12,43.12,0,0,0-6.3,1c-1,.26-2,.57-3,.9l-1.51.46a6.91,6.91,0,0,1-1.62.3,0,0,0,0,0,0,.08,11.58,11.58,0,0,0,1.56,0,10.86,10.86,0,0,0,1.49-.28c1.05-.26,2.08-.56,3.12-.83,2.09-.54,4.19-1.08,6.33-1.47C114.39,195.63,114.37,195.46,114.27,195.47Z" style="fill:#263238"></path><path d="M119.51,197.35a44,44,0,0,0-5.26-.25c-.88,0-1.75.07-2.63.15l-1.25.14c-.46.06-.91.18-1.37.23a0,0,0,0,0,0,.08c.43,0,.87,0,1.31,0l1.31,0,2.63-.06c1.75-.06,3.5-.1,5.25-.1C119.61,197.49,119.6,197.36,119.51,197.35Z" style="fill:#263238"></path><polygon points="115.72 242.3 152.34 245.02 163.11 193.71 126.48 190.99 115.72 242.3" style="fill:#263238"></polygon><polygon points="117.52 242.44 154.14 245.16 164.91 193.84 128.28 191.12 117.52 242.44" style="fill:#455a64"></polygon><path d="M146.19,216.23a4,4,0,0,1-4.14,3.27,3.22,3.22,0,0,1-3-3.8,4,4,0,0,1,4.14-3.28A3.23,3.23,0,0,1,146.19,216.23Z" style="fill:#fff"></path><path d="M91.28,158.94C80,171.1,53.86,203.56,59.33,211.21c9,12.56,32.59,25,40.07,28,3.22,1.3,17.33-21.72,14.38-24-3.54-2.73-27.58-13.06-27.24-15.31.2-1.28,4.72-14.81,8.62-28.34C99.68,155.89,95.15,154.78,91.28,158.94Z" style="fill:#eb9481"></path><path d="M101.84,212.44s10.39-2,17.25-3.05c3.82-.56,10.46-.95,13.46-.08,4.49,1.31,22.42,9.62,20.5,14-1.74,4-16.24-5.12-16.24-5.12s15.44,7.88,12.47,12.29-18-8.06-18-8.06,15.68,8.46,11.9,12.51c-2.86,3.06-17.1-7.45-17.1-7.45s13.43,7.36,10.63,10.64c-3.11,3.62-16.85-5.27-16.85-5.27-8.54,7.13-15.52,7.8-20.47,6.37C98.23,238.9,101.84,212.44,101.84,212.44Z" style="fill:#eb9481"></path><path d="M132.36,215.52c11.82,4.94,16.1,11,16,10.85-3.46-3.25-9.72-7-11.48-8s-2.76-1.73-4.52-2.75C132.28,215.56,132.32,215.51,132.36,215.52Z" style="fill:#263238"></path><path d="M127.84,221.43a43.69,43.69,0,0,1,13.33,7.79c.14.14.05.16-.12.06-2.21-1.36-11-6.55-13.24-7.8C127.77,221.47,127.8,221.42,127.84,221.43Z" style="fill:#263238"></path><path d="M123.6,226.26a32.34,32.34,0,0,1,10.14,6.33c.15.13,0,.17-.17.06-3.33-2.17-5.92-3.9-10-6.27C123.48,226.34,123.52,226.22,123.6,226.26Z" style="fill:#263238"></path><path d="M99.65,207.14l-15.29,26.5S58.6,218.26,57.64,208.18s26.6-42.81,31.77-48.09c1.46-1.49,5.38-4.83,7.09-4.24,1.92.66,1.46,3.53.74,10.21-.95,8.9-10.15,32.77-9.71,33.82S99.65,207.14,99.65,207.14Z" style="fill:#B8945A"></path><path d="M79.8,228.69c.72-.89,1.28-1.91,1.91-2.86s1.23-1.92,1.83-2.9c1.14-1.88,2.26-3.78,3.36-5.68s2.21-3.81,3.31-5.72,2.39-3.92,3.36-6a.08.08,0,0,0-.13-.08c-1.34,1.84-2.46,3.87-3.65,5.81s-2.35,3.82-3.51,5.74-2.32,3.84-3.45,5.78c-.56.95-1.1,1.91-1.61,2.88s-1.13,1.92-1.55,2.94C79.63,228.71,79.75,228.75,79.8,228.69Z" style="fill:#263238"></path><path d="M87.14,199.82a14.68,14.68,0,0,1,.81-3.1c.73-2.16,3.28-10.27,4-12.42.86-2.4,1.69-4.8,2.64-7.17,0-.06.11,0,.1,0-.4,1.45-1,3.37-1.61,5.38.13-.22.26-.43.41-.64a13.1,13.1,0,0,0,1.17-2s0,0,0,0a16.17,16.17,0,0,1-.92,2.09c-.18.34-.38.67-.59,1s-.27.37-.4.55c-1.51,4.78-5,15.67-5.07,15.85s10,6.23,12.22,7.59c.08.06-.29.53-.5.78a.08.08,0,0,1-.13-.08,2.05,2.05,0,0,1,.28-.48C95.81,205.49,87.24,200.3,87.14,199.82Z" style="fill:#263238"></path><path d="M96.82,158.07c.29,1,4.57,6.38,9.31,5.93,1.54-.15,2.11-7.46,2.11-7.46l.11-.63,1.54-8.85L99.29,141l-1.53-.8s-.26,2.45-.55,5.5c0,.14,0,.28,0,.43s0,.34,0,.5c0,.45-.1.92-.14,1.38s-.06.7-.08,1.07,0,.74-.08,1.11A58.52,58.52,0,0,0,96.82,158.07Z" style="fill:#eb9481"></path><path d="M97.21,145.66a18,18,0,0,0,11.14,10.25l1.54-8.85L99.29,141l-1.53-.8S97.5,142.61,97.21,145.66Z" style="fill:#263238"></path><path d="M108.37,156.1l-3,7.09L96.67,154l-2.56,2.86s8.45,14.48,8.51,13.83l3-6.1,4.18,4.34-.18-10.75Z" style="fill:#ebebeb"></path><path d="M110.05,163.64c-.09-1.78-.13-3.57-.3-5.34a.06.06,0,0,0-.12,0c-.38,1.7,0,8.48,0,10.11v0c-.18-.19-3.88-3.83-3.92-3.77-.65,1-2.88,5.41-3,5.82-1.33-2.3-6.46-10.67-8.05-12.85a.06.06,0,0,0-.11.06c1.18,2.42,8,13.69,8.07,13.66a70.05,70.05,0,0,0,3.18-6.46c.62.79,4.35,4.89,4.37,4.63A56.67,56.67,0,0,0,110.05,163.64Z" style="fill:#263238"></path><path d="M123.06,134.21c1.4,15.7-7.84,18.32-11.23,18.62-3.07.27-13.57.8-16.59-14.67s3.83-21.08,10.83-22.08S121.65,118.51,123.06,134.21Z" style="fill:#eb9481"></path><path d="M119.44,131.25a9.58,9.58,0,0,1-1.07-.19,1.74,1.74,0,0,1-1.05-.41.54.54,0,0,1,0-.68,1.37,1.37,0,0,1,1.36-.36,2,2,0,0,1,1.3.68A.59.59,0,0,1,119.44,131.25Z" style="fill:#263238"></path><path d="M108.45,131.61c.37-.06.7-.17,1.06-.26a1.74,1.74,0,0,0,1-.46.56.56,0,0,0,0-.69,1.37,1.37,0,0,0-1.38-.28,2,2,0,0,0-1.26.75A.6.6,0,0,0,108.45,131.61Z" style="fill:#263238"></path><path d="M111.06,135.4s-.08.06-.08.1c.09,1.07,0,2.31-.94,2.72a0,0,0,0,0,0,.06C111.23,138.05,111.31,136.4,111.06,135.4Z" style="fill:#263238"></path><path d="M110,134.33c-1.73,0-1.69,3.43-.08,3.46S111.49,134.37,110,134.33Z" style="fill:#263238"></path><path d="M109.37,134.52c-.31.2-.6.55-1,.59s-.75-.31-1-.65c0,0,0,0-.06,0,0,.66.27,1.34,1,1.43s1.11-.51,1.27-1.18C109.6,134.63,109.49,134.44,109.37,134.52Z" style="fill:#263238"></path><path d="M117.43,135s.08.05.08.1c0,1.07.12,2.3,1.09,2.66a0,0,0,0,1,0,.06C117.41,137.66,117.23,136,117.43,135Z" style="fill:#263238"></path><path d="M118.38,133.89c1.73-.14,1.88,3.32.28,3.45S116.93,134,118.38,133.89Z" style="fill:#263238"></path><path d="M119.11,134.08c.28.18.57.5.9.5s.64-.37.87-.74c0,0,.05,0,.05,0,0,.66-.14,1.36-.77,1.52s-1-.41-1.21-1.06C118.91,134.2,119,134,119.11,134.08Z" style="fill:#263238"></path><path d="M111.51,144.31c.24.27.47.63.86.69a2.76,2.76,0,0,0,1.17-.18,0,0,0,0,1,0,.06,1.45,1.45,0,0,1-1.4.48,1.15,1.15,0,0,1-.77-1A.05.05,0,0,1,111.51,144.31Z" style="fill:#263238"></path><path d="M116.29,140.38s.19,1.61.18,2.37c0,.07-.18.1-.44.11h0a3.6,3.6,0,0,1-3.47-1.41c0-.07,0-.15.12-.1a5.39,5.39,0,0,0,3.26,1c.06-.21-.42-2.74-.3-2.75a6.65,6.65,0,0,1,1.71.42c-.3-3.36-1.14-6.64-1.4-10a.1.1,0,0,1,.2,0,53.89,53.89,0,0,1,2,10.69C118.14,141.11,116.59,140.52,116.29,140.38Z" style="fill:#263238"></path><path d="M115.71,142.74A4.06,4.06,0,0,1,114,144a1.81,1.81,0,0,1-1.13.06c-.82-.22-.83-1-.67-1.61a4.47,4.47,0,0,1,.38-1A5.35,5.35,0,0,0,115.71,142.74Z" style="fill:#263238"></path><path d="M114,144a1.81,1.81,0,0,1-1.13.06c-.82-.22-.83-1-.67-1.61A1.91,1.91,0,0,1,114,144Z" style="fill:#ff9cbd"></path><path d="M109,115.84c-7.51-.74-13.81.69-17,4.31-6.54,7.54-3.29,20.84-6.14,23.26-7.44,6.31-2.5,8.81-4.48,11.14-1.63,1.91-7.9,3.3-5.89,10.4l28.51.8c1-4.66-3.65-7.31-3.85-10.63s3.83-6.5-2.25-13.74C94,136.68,109,115.84,109,115.84Z" style="fill:#263238"></path><path d="M94.65,137.81c1.8.13,6,.4,8.67-1.79,1.46-1.21,2.74-3.27,3.51-7,1.35-6.45,5.82-10.62,12.69-6.85,0,0,1.39-5.77-2.65-8.13s-8.16,1.36-8.16,1.36-8.93-.89-13.7,5.86S94.65,137.81,94.65,137.81Z" style="fill:#263238"></path><path d="M96.19,144a3.69,3.69,0,0,0,.73.18,2.33,2.33,0,0,0,.74,0,2.08,2.08,0,0,0,.91-.3,2.28,2.28,0,0,0,.59-.46,3,3,0,0,0,.6-.88l-.89-4.21s-3.45-4.91-5.68-3.68S93.56,143,96.19,144Z" style="fill:#eb9481"></path><path d="M94,136.7a0,0,0,0,0,0,.07c1.84.74,2.81,2.44,3.5,4.21a1.48,1.48,0,0,0-2.21-.4.06.06,0,0,0,0,.1,1.65,1.65,0,0,1,1.81.57,7.61,7.61,0,0,1,.87,1.46c.09.16.38.07.32-.12l0,0C98.33,140.21,96.5,136.93,94,136.7Z" style="fill:#263238"></path><path d="M96.41,143.34a.72.72,0,0,0,.86.57.73.73,0,0,0,.57-.86.74.74,0,0,0-.87-.57A.72.72,0,0,0,96.41,143.34Z" style="fill:#fff"></path><path d="M94.9,142.25a.53.53,0,0,0,.61.4.52.52,0,1,0-.61-.4Z" style="fill:#fff"></path></g></svg>